<svg version="1.1" viewBox="0.0 0.0 960.0 720.0" fill="none" stroke="none" stroke-linecap="square" stroke-miterlimit="10" xmlns:xlink="http://www.w3.org/1999/xlink" xmlns="http://www.w3.org/2000/svg"><clipPath id="p.0"><path d="m0 0l960.0 0l0 720.0l-960.0 0l0 -720.0z" clip-rule="nonzero"/></clipPath><g clip-path="url(#p.0)"><path fill="#000000" fill-opacity="0.0" d="m0 0l960.0 0l0 720.0l-960.0 0z" fill-rule="evenodd"/><defs><radialGradient id="p.1" gradientUnits="userSpaceOnUse" gradientTransform="matrix(7.485658244624515 0.0 0.0 7.485658244624515 0.0 0.0)" spreadMethod="pad" cx="85.91722469118545" cy="20.534104158391095" fx="85.91722469118545" fy="20.534104158391095" r="7.485658168792725"><stop offset="0.0" stop-color="#dfe9fb"/><stop offset="1.0" stop-color="#6e9be7"/></radialGradient></defs><path fill="url(#p.1)" d="m595.05774 134.53543l0 0c0 -5.2952576 21.530273 -9.587921 48.089233 -9.587921c26.55896 0 48.089233 4.2926636 48.089233 9.587921l0 38.351715c0 5.2952576 -21.530273 9.587921 -48.089233 9.587921c-26.55896 0 -48.089233 -4.2926636 -48.089233 -9.587921z" fill-rule="evenodd"/><path fill="#000000" fill-opacity="0.0" d="m691.2362 134.53543l0 0c0 5.295273 -21.530273 9.587921 -48.089233 9.587921c-26.55896 0 -48.089233 -4.2926483 -48.089233 -9.587921" fill-rule="evenodd"/><path fill="#000000" fill-opacity="0.0" d="m595.05774 134.53543l0 0c0 -5.2952576 21.530273 -9.587921 48.089233 -9.587921c26.55896 0 48.089233 4.2926636 48.089233 9.587921l0 38.351715c0 5.2952576 -21.530273 9.587921 -48.089233 9.587921c-26.55896 0 -48.089233 -4.2926636 -48.089233 -9.587921z" fill-rule="evenodd"/><path stroke="#000000" stroke-width="1.0" stroke-linejoin="round" stroke-linecap="butt" d="m691.2362 134.53543l0 0c0 5.295273 -21.530273 9.587921 -48.089233 9.587921c-26.55896 0 -48.089233 -4.2926483 -48.089233 -9.587921" fill-rule="evenodd"/><path stroke="#000000" stroke-width="1.0" stroke-linejoin="round" stroke-linecap="butt" d="m595.05774 134.53543l0 0c0 -5.2952576 21.530273 -9.587921 48.089233 -9.587921c26.55896 0 48.089233 4.2926636 48.089233 9.587921l0 38.351715c0 5.2952576 -21.530273 9.587921 -48.089233 9.587921c-26.55896 0 -48.089233 -4.2926636 -48.089233 -9.587921z" fill-rule="evenodd"/><path fill="#000000" d="m610.57336 165.42525l-1.484375 0l0 -9.484375q0 -1.1875 0.078125 -2.25q-0.1875 0.1875 -0.421875 0.40625q-0.234375 0.203125 -2.171875 1.765625l-0.796875 -1.03125l3.515625 -2.71875l1.28125 0l0 13.3125z" fill-rule="nonzero"/><defs><radialGradient id="p.2" gradientUnits="userSpaceOnUse" gradientTransform="matrix(7.485658244624515 0.0 0.0 7.485658244624515 0.0 0.0)" spreadMethod="pad" cx="89.01536252916688" cy="23.74023503101469" fx="89.01536252916688" fy="23.74023503101469" r="7.485658168792725"><stop offset="0.0" stop-color="#dfe9fb"/><stop offset="1.0" stop-color="#6e9be7"/></radialGradient></defs><path fill="url(#p.2)" d="m618.2493 158.53543l0 0c0 -5.2952576 21.530273 -9.587921 48.089233 -9.587921c26.55896 0 48.089233 4.2926636 48.089233 9.587921l0 38.351715c0 5.2952576 -21.530273 9.587921 -48.089233 9.587921c-26.55896 0 -48.089233 -4.2926636 -48.089233 -9.587921z" fill-rule="evenodd"/><path fill="#000000" fill-opacity="0.0" d="m714.4278 158.53543l0 0c0 5.295273 -21.530273 9.587921 -48.089233 9.587921c-26.55896 0 -48.089233 -4.2926483 -48.089233 -9.587921" fill-rule="evenodd"/><path fill="#000000" fill-opacity="0.0" d="m618.2493 158.53543l0 0c0 -5.2952576 21.530273 -9.587921 48.089233 -9.587921c26.55896 0 48.089233 4.2926636 48.089233 9.587921l0 38.351715c0 5.2952576 -21.530273 9.587921 -48.089233 9.587921c-26.55896 0 -48.089233 -4.2926636 -48.089233 -9.587921z" fill-rule="evenodd"/><path stroke="#000000" stroke-width="1.0" stroke-linejoin="round" stroke-linecap="butt" d="m714.4278 158.53543l0 0c0 5.295273 -21.530273 9.587921 -48.089233 9.587921c-26.55896 0 -48.089233 -4.2926483 -48.089233 -9.587921" fill-rule="evenodd"/><path stroke="#000000" stroke-width="1.0" stroke-linejoin="round" stroke-linecap="butt" d="m618.2493 158.53543l0 0c0 -5.2952576 21.530273 -9.587921 48.089233 -9.587921c26.55896 0 48.089233 4.2926636 48.089233 9.587921l0 38.351715c0 5.2952576 -21.530273 9.587921 -48.089233 9.587921c-26.55896 0 -48.089233 -4.2926636 -48.089233 -9.587921z" fill-rule="evenodd"/><path fill="#000000" d="m636.9212 189.42525l-8.765625 0l0 -1.296875l3.515625 -3.53125q1.59375 -1.625 2.109375 -2.3125q0.515625 -0.6875 0.765625 -1.34375q0.25 -0.65625 0.25 -1.421875q0 -1.0625 -0.640625 -1.6875q-0.640625 -0.625 -1.796875 -0.625q-0.828125 0 -1.578125 0.28125q-0.734375 0.265625 -1.640625 0.984375l-0.8125 -1.03125q1.84375 -1.53125 4.015625 -1.53125q1.875 0 2.9375 0.96875q1.0625 0.953125 1.0625 2.578125q0 1.265625 -0.71875 2.515625q-0.703125 1.234375 -2.640625 3.125l-2.921875 2.859375l0 0.0625l6.859375 0l0 1.40625z" fill-rule="nonzero"/><defs><radialGradient id="p.3" gradientUnits="userSpaceOnUse" gradientTransform="matrix(7.485658244624515 0.0 0.0 7.485658244624515 0.0 0.0)" spreadMethod="pad" cx="92.4735940248675" cy="27.306810188093344" fx="92.4735940248675" fy="27.306810188093344" r="7.485658168792725"><stop offset="0.0" stop-color="#dfe9fb"/><stop offset="1.0" stop-color="#6e9be7"/></radialGradient></defs><path fill="url(#p.3)" d="m644.1365 185.2336l0 0c0 -5.295273 21.530273 -9.587921 48.089233 -9.587921c26.55896 0 48.089233 4.2926483 48.089233 9.587921l0 38.3517c0 5.295273 -21.530273 9.587936 -48.089233 9.587936c-26.55896 0 -48.089233 -4.2926636 -48.089233 -9.587936z" fill-rule="evenodd"/><path fill="#000000" fill-opacity="0.0" d="m740.31494 185.2336l0 0c0 5.2952576 -21.530273 9.587921 -48.089233 9.587921c-26.55896 0 -48.089233 -4.2926636 -48.089233 -9.587921" fill-rule="evenodd"/><path fill="#000000" fill-opacity="0.0" d="m644.1365 185.2336l0 0c0 -5.295273 21.530273 -9.587921 48.089233 -9.587921c26.55896 0 48.089233 4.2926483 48.089233 9.587921l0 38.3517c0 5.295273 -21.530273 9.587936 -48.089233 9.587936c-26.55896 0 -48.089233 -4.2926636 -48.089233 -9.587936z" fill-rule="evenodd"/><path stroke="#000000" stroke-width="1.0" stroke-linejoin="round" stroke-linecap="butt" d="m740.31494 185.2336l0 0c0 5.2952576 -21.530273 9.587921 -48.089233 9.587921c-26.55896 0 -48.089233 -4.2926636 -48.089233 -9.587921" fill-rule="evenodd"/><path stroke="#000000" stroke-width="1.0" stroke-linejoin="round" stroke-linecap="butt" d="m644.1365 185.2336l0 0c0 -5.295273 21.530273 -9.587921 48.089233 -9.587921c26.55896 0 48.089233 4.2926483 48.089233 9.587921l0 38.3517c0 5.295273 -21.530273 9.587936 -48.089233 9.587936c-26.55896 0 -48.089233 -4.2926636 -48.089233 -9.587936z" fill-rule="evenodd"/><path fill="#000000" d="m667.1546 205.93591q0 1.28125 -0.71875 2.09375q-0.71875 0.8125 -2.03125 1.078125l0 0.078125q1.609375 0.203125 2.375 1.03125q0.78125 0.8125 0.78125 2.140625q0 1.890625 -1.328125 2.921875q-1.3125 1.03125 -3.75 1.03125q-1.0625 0 -1.9375 -0.171875q-0.875 -0.15625 -1.703125 -0.546875l0 -1.453125q0.859375 0.4375 1.84375 0.65625q0.984375 0.21875 1.859375 0.21875q3.4375 0 3.4375 -2.703125q0 -2.421875 -3.796875 -2.421875l-1.3125 0l0 -1.296875l1.328125 0q1.5625 0 2.46875 -0.6875q0.90625 -0.6875 0.90625 -1.90625q0 -0.984375 -0.671875 -1.53125q-0.65625 -0.5625 -1.8125 -0.5625q-0.875 0 -1.65625 0.25q-0.765625 0.234375 -1.765625 0.859375l-0.765625 -1.015625q0.828125 -0.640625 1.890625 -1.015625q1.078125 -0.375 2.265625 -0.375q1.9375 0 3.015625 0.890625q1.078125 0.890625 1.078125 2.4375z" fill-rule="nonzero"/><path fill="#000000" fill-opacity="0.0" d="m525.7507 72.81102l288.72437 0l0 45.826775l-288.72437 0z" fill-rule="evenodd"/><path fill="#000000" d="m553.599 93.20691q0 2.015625 -1.390625 3.109375q-1.375 1.09375 -3.9375 1.09375l-1.578125 0l0 5.234375l-1.546875 0l0 -13.3125l3.453125 0q5.0 0 5.0 3.875zm-6.90625 2.875l1.390625 0q2.0625 0 2.984375 -0.65625q0.921875 -0.671875 0.921875 -2.140625q0 -1.328125 -0.875 -1.96875q-0.859375 -0.65625 -2.6875 -0.65625l-1.734375 0l0 5.421875zm14.013306 -3.609375q0.671875 0 1.1875 0.109375l-0.203125 1.40625q-0.625 -0.140625 -1.09375 -0.140625q-1.203125 0 -2.078125 0.984375q-0.859375 0.984375 -0.859375 2.453125l0 5.359375l-1.5 0l0 -9.984375l1.234375 0l0.1875 1.84375l0.0625 0q0.5625 -0.96875 1.34375 -1.5q0.78125 -0.53125 1.71875 -0.53125zm11.67804 5.171875q0 2.4375 -1.234375 3.8125q-1.21875 1.375 -3.390625 1.375q-1.34375 0 -2.390625 -0.625q-1.03125 -0.640625 -1.59375 -1.8125q-0.5625 -1.171875 -0.5625 -2.75q0 -2.4375 1.21875 -3.796875q1.21875 -1.375 3.390625 -1.375q2.09375 0 3.328125 1.40625q1.234375 1.390625 1.234375 3.765625zm-7.609375 0q0 1.90625 0.765625 2.921875q0.765625 1.0 2.25 1.0q1.484375 0 2.25 -1.0q0.78125 -1.0 0.78125 -2.921875q0 -1.90625 -0.78125 -2.890625q-0.765625 -0.984375 -2.265625 -0.984375q-1.484375 0 -2.25 0.96875q-0.75 0.96875 -0.75 2.90625zm13.487183 3.9375q0.40625 0 0.765625 -0.0625q0.375 -0.0625 0.59375 -0.125l0 1.15625q-0.234375 0.125 -0.71875 0.203125q-0.484375 0.078125 -0.859375 0.078125q-2.890625 0 -2.890625 -3.0625l0 -5.9375l-1.4375 0l0 -0.71875l1.4375 -0.640625l0.625 -2.125l0.875 0l0 2.3125l2.90625 0l0 1.171875l-2.90625 0l0 5.875q0 0.90625 0.421875 1.390625q0.4375 0.484375 1.1875 0.484375zm7.5861816 1.25q-2.21875 0 -3.5 -1.34375q-1.28125 -1.359375 -1.28125 -3.75q0 -2.421875 1.1875 -3.84375q1.1875 -1.421875 3.1875 -1.421875q1.890625 0 2.96875 1.234375q1.09375 1.234375 1.09375 3.265625l0 0.953125l-6.875 0q0.046875 1.765625 0.890625 2.671875q0.84375 0.90625 2.375 0.90625q1.609375 0 3.1875 -0.671875l0 1.34375q-0.796875 0.34375 -1.515625 0.5q-0.71875 0.15625 -1.71875 0.15625zm-0.421875 -9.09375q-1.203125 0 -1.921875 0.796875q-0.703125 0.78125 -0.828125 2.15625l5.21875 0q0 -1.421875 -0.640625 -2.1875q-0.640625 -0.765625 -1.828125 -0.765625zm10.654297 9.09375q-2.171875 0 -3.359375 -1.328125q-1.1875 -1.34375 -1.1875 -3.78125q0 -2.515625 1.203125 -3.875q1.21875 -1.375 3.4375 -1.375q0.71875 0 1.4375 0.15625q0.734375 0.15625 1.140625 0.375l-0.46875 1.28125q-0.5 -0.203125 -1.09375 -0.328125q-0.59375 -0.140625 -1.046875 -0.140625q-3.046875 0 -3.046875 3.875q0 1.84375 0.734375 2.828125q0.75 0.984375 2.21875 0.984375q1.25 0 2.546875 -0.53125l0 1.328125q-1.0 0.53125 -2.515625 0.53125zm8.11615 -1.25q0.40625 0 0.765625 -0.0625q0.375 -0.0625 0.59375 -0.125l0 1.15625q-0.234375 0.125 -0.71875 0.203125q-0.484375 0.078125 -0.859375 0.078125q-2.890625 0 -2.890625 -3.0625l0 -5.9375l-1.4375 0l0 -0.71875l1.4375 -0.640625l0.625 -2.125l0.875 0l0 2.3125l2.90625 0l0 1.171875l-2.90625 0l0 5.875q0 0.90625 0.421875 1.390625q0.4375 0.484375 1.1875 0.484375zm4.8673706 1.0625l-1.5 0l0 -9.984375l1.5 0l0 9.984375zm-1.640625 -12.6875q0 -0.515625 0.25 -0.75q0.265625 -0.25 0.65625 -0.25q0.359375 0 0.625 0.25q0.265625 0.234375 0.265625 0.75q0 0.515625 -0.265625 0.765625q-0.265625 0.25 -0.625 0.25q-0.390625 0 -0.65625 -0.25q-0.25 -0.25 -0.25 -0.765625zm13.46875 7.6875q0 2.4375 -1.234375 3.8125q-1.21875 1.375 -3.390625 1.375q-1.34375 0 -2.390625 -0.625q-1.03125 -0.640625 -1.59375 -1.8125q-0.5625 -1.171875 -0.5625 -2.75q0 -2.4375 1.21875 -3.796875q1.21875 -1.375 3.390625 -1.375q2.09375 0 3.328125 1.40625q1.234375 1.390625 1.234375 3.765625zm-7.609375 0q0 1.90625 0.765625 2.921875q0.765625 1.0 2.25 1.0q1.484375 0 2.25 -1.0q0.78125 -1.0 0.78125 -2.921875q0 -1.90625 -0.78125 -2.890625q-0.765625 -0.984375 -2.265625 -0.984375q-1.484375 0 -2.25 0.96875q-0.75 0.96875 -0.75 2.90625zm17.096558 5.0l0 -6.453125q0 -1.21875 -0.5625 -1.8125q-0.546875 -0.609375 -1.734375 -0.609375q-1.5625 0 -2.296875 0.84375q-0.734375 0.84375 -0.734375 2.796875l0 5.234375l-1.5 0l0 -9.984375l1.21875 0l0.25 1.359375l0.078125 0q0.453125 -0.734375 1.296875 -1.140625q0.84375 -0.40625 1.875 -0.40625q1.796875 0 2.703125 0.875q0.921875 0.875 0.921875 2.78125l0 6.515625l-1.515625 0zm15.90625 -2.71875q0 1.390625 -1.046875 2.15625q-1.03125 0.75 -2.90625 0.75q-1.984375 0 -3.09375 -0.640625l0 -1.390625q0.71875 0.359375 1.53125 0.578125q0.828125 0.203125 1.59375 0.203125q1.1875 0 1.828125 -0.375q0.640625 -0.390625 0.640625 -1.15625q0 -0.578125 -0.515625 -1.0q-0.5 -0.421875 -1.96875 -0.984375q-1.390625 -0.515625 -1.984375 -0.890625q-0.578125 -0.390625 -0.875 -0.875q-0.28125 -0.5 -0.28125 -1.1875q0 -1.21875 0.984375 -1.921875q1.0 -0.71875 2.734375 -0.71875q1.609375 0 3.140625 0.65625l-0.53125 1.234375q-1.5 -0.625 -2.71875 -0.625q-1.078125 0 -1.625 0.34375q-0.546875 0.34375 -0.546875 0.921875q0 0.40625 0.203125 0.6875q0.203125 0.28125 0.65625 0.546875q0.453125 0.25 1.75 0.734375q1.78125 0.640625 2.40625 1.296875q0.625 0.65625 0.625 1.65625zm6.4468994 2.90625q-2.171875 0 -3.359375 -1.328125q-1.1875 -1.34375 -1.1875 -3.78125q0 -2.515625 1.203125 -3.875q1.21875 -1.375 3.4375 -1.375q0.71875 0 1.4375 0.15625q0.734375 0.15625 1.140625 0.375l-0.46875 1.28125q-0.5 -0.203125 -1.09375 -0.328125q-0.59375 -0.140625 -1.046875 -0.140625q-3.046875 0 -3.046875 3.875q0 1.84375 0.734375 2.828125q0.75 0.984375 2.21875 0.984375q1.25 0 2.546875 -0.53125l0 1.328125q-1.0 0.53125 -2.515625 0.53125zm11.725464 -0.1875l0 -6.453125q0 -1.21875 -0.5625 -1.8125q-0.546875 -0.609375 -1.734375 -0.609375q-1.578125 0 -2.3125 0.859375q-0.71875 0.84375 -0.71875 2.796875l0 5.21875l-1.5 0l0 -14.171875l1.5 0l0 4.28125q0 0.78125 -0.0625 1.296875l0.09375 0q0.4375 -0.71875 1.265625 -1.125q0.828125 -0.421875 1.875 -0.421875q1.828125 0 2.75 0.875q0.921875 0.859375 0.921875 2.75l0 6.515625l-1.515625 0zm8.841309 0.1875q-2.21875 0 -3.5 -1.34375q-1.28125 -1.359375 -1.28125 -3.75q0 -2.421875 1.1875 -3.84375q1.1875 -1.421875 3.1875 -1.421875q1.890625 0 2.96875 1.234375q1.09375 1.234375 1.09375 3.265625l0 0.953125l-6.875 0q0.046875 1.765625 0.890625 2.671875q0.84375 0.90625 2.375 0.90625q1.609375 0 3.1875 -0.671875l0 1.34375q-0.796875 0.34375 -1.515625 0.5q-0.71875 0.15625 -1.71875 0.15625zm-0.421875 -9.09375q-1.203125 0 -1.921875 0.796875q-0.703125 0.78125 -0.828125 2.15625l5.21875 0q0 -1.421875 -0.640625 -2.1875q-0.640625 -0.765625 -1.828125 -0.765625zm19.388672 8.90625l0 -6.5q0 -1.1875 -0.515625 -1.78125q-0.5 -0.59375 -1.578125 -0.59375q-1.40625 0 -2.09375 0.8125q-0.671875 0.796875 -0.671875 2.484375l0 5.578125l-1.5 0l0 -6.5q0 -1.1875 -0.515625 -1.78125q-0.515625 -0.59375 -1.59375 -0.59375q-1.421875 0 -2.09375 0.859375q-0.65625 0.84375 -0.65625 2.78125l0 5.234375l-1.5 0l0 -9.984375l1.21875 0l0.25 1.359375l0.078125 0q0.421875 -0.71875 1.203125 -1.125q0.78125 -0.421875 1.75 -0.421875q2.328125 0 3.0625 1.703125l0.0625 0q0.453125 -0.78125 1.296875 -1.234375q0.84375 -0.46875 1.9375 -0.46875q1.6875 0 2.53125 0.875q0.84375 0.875 0.84375 2.78125l0 6.515625l-1.515625 0zm8.853577 0.1875q-2.21875 0 -3.5 -1.34375q-1.28125 -1.359375 -1.28125 -3.75q0 -2.421875 1.1875 -3.84375q1.1875 -1.421875 3.1875 -1.421875q1.890625 0 2.96875 1.234375q1.09375 1.234375 1.09375 3.265625l0 0.953125l-6.875 0q0.046875 1.765625 0.890625 2.671875q0.84375 0.90625 2.375 0.90625q1.609375 0 3.1875 -0.671875l0 1.34375q-0.796875 0.34375 -1.515625 0.5q-0.71875 0.15625 -1.71875 0.15625zm-0.421875 -9.09375q-1.203125 0 -1.921875 0.796875q-0.703125 0.78125 -0.828125 2.15625l5.21875 0q0 -1.421875 -0.640625 -2.1875q-0.640625 -0.765625 -1.828125 -0.765625zm10.656799 3.796875q0 -2.421875 0.703125 -4.515625q0.703125 -2.109375 2.03125 -3.6875l1.484375 0q-1.3125 1.75 -1.984375 3.859375q-0.65625 2.109375 -0.65625 4.328125q0 2.1875 0.671875 4.28125q0.6875 2.078125 1.953125 3.7968674l-1.46875 0q-1.328125 -1.5468674 -2.03125 -3.6093674q-0.703125 -2.078125 -0.703125 -4.453125zm10.926636 -5.0625q0.671875 0 1.1875 0.109375l-0.203125 1.40625q-0.625 -0.140625 -1.09375 -0.140625q-1.203125 0 -2.078125 0.984375q-0.859375 0.984375 -0.859375 2.453125l0 5.359375l-1.5 0l0 -9.984375l1.234375 0l0.1875 1.84375l0.0625 0q0.5625 -0.96875 1.34375 -1.5q0.78125 -0.53125 1.71875 -0.53125zm7.2874146 10.359375q-2.21875 0 -3.5 -1.34375q-1.28125 -1.359375 -1.28125 -3.75q0 -2.421875 1.1875 -3.84375q1.1875 -1.421875 3.1875 -1.421875q1.890625 0 2.96875 1.234375q1.09375 1.234375 1.09375 3.265625l0 0.953125l-6.875 0q0.046875 1.765625 0.890625 2.671875q0.84375 0.90625 2.375 0.90625q1.609375 0 3.1875 -0.671875l0 1.34375q-0.796875 0.34375 -1.515625 0.5q-0.71875 0.15625 -1.71875 0.15625zm-0.421875 -9.09375q-1.203125 0 -1.921875 0.796875q-0.703125 0.78125 -0.828125 2.15625l5.21875 0q0 -1.421875 -0.640625 -2.1875q-0.640625 -0.765625 -1.828125 -0.765625zm11.310547 9.09375q-0.96875 0 -1.78125 -0.359375q-0.8125 -0.359375 -1.359375 -1.109375l-0.109375 0q0.109375 0.875 0.109375 1.65625l0 4.1093674l-1.5 0l0 -14.468742l1.21875 0l0.21875 1.359375l0.0625 0q0.59375 -0.8125 1.359375 -1.171875q0.78125 -0.375 1.78125 -0.375q1.984375 0 3.0625 1.359375q1.078125 1.359375 1.078125 3.8125q0 2.453125 -1.09375 3.828125q-1.09375 1.359375 -3.046875 1.359375zm-0.21875 -9.0625q-1.53125 0 -2.21875 0.84375q-0.671875 0.84375 -0.703125 2.6875l0 0.34375q0 2.109375 0.703125 3.015625q0.703125 0.90625 2.25 0.90625q1.296875 0 2.03125 -1.046875q0.734375 -1.046875 0.734375 -2.890625q0 -1.875 -0.734375 -2.859375q-0.734375 -1.0 -2.0625 -1.0zm8.510559 8.875l-1.5 0l0 -14.171875l1.5 0l0 14.171875zm4.718689 0l-1.5 0l0 -9.984375l1.5 0l0 9.984375zm-1.640625 -12.6875q0 -0.515625 0.25 -0.75q0.265625 -0.25 0.65625 -0.25q0.359375 0 0.625 0.25q0.265625 0.234375 0.265625 0.75q0 0.515625 -0.265625 0.765625q-0.265625 0.25 -0.625 0.25q-0.390625 0 -0.65625 -0.25q-0.25 -0.25 -0.25 -0.765625zm8.84375 12.875q-2.171875 0 -3.359375 -1.328125q-1.1875 -1.34375 -1.1875 -3.78125q0 -2.515625 1.203125 -3.875q1.21875 -1.375 3.4375 -1.375q0.71875 0 1.4375 0.15625q0.734375 0.15625 1.140625 0.375l-0.46875 1.28125q-0.5 -0.203125 -1.09375 -0.328125q-0.59375 -0.140625 -1.046875 -0.140625q-3.046875 0 -3.046875 3.875q0 1.84375 0.734375 2.828125q0.75 0.984375 2.21875 0.984375q1.25 0 2.546875 -0.53125l0 1.328125q-1.0 0.53125 -2.515625 0.53125zm11.038025 -0.1875l-0.3125 -1.421875l-0.0625 0q-0.75 0.9375 -1.5 1.28125q-0.734375 0.328125 -1.84375 0.328125q-1.484375 0 -2.328125 -0.765625q-0.84375 -0.765625 -0.84375 -2.1875q0 -3.015625 4.828125 -3.171875l1.703125 -0.046875l0 -0.625q0 -1.171875 -0.515625 -1.734375q-0.5 -0.5625 -1.609375 -0.5625q-1.25 0 -2.828125 0.765625l-0.453125 -1.15625q0.734375 -0.390625 1.609375 -0.609375q0.875 -0.234375 1.765625 -0.234375q1.78125 0 2.640625 0.796875q0.859375 0.78125 0.859375 2.53125l0 6.8125l-1.109375 0zm-3.421875 -1.0625q1.40625 0 2.203125 -0.765625q0.8125 -0.78125 0.8125 -2.1875l0 -0.890625l-1.5 0.0625q-1.8125 0.0625 -2.609375 0.5625q-0.796875 0.484375 -0.796875 1.546875q0 0.8125 0.5 1.25q0.5 0.421875 1.390625 0.421875zm10.875671 0q0.40625 0 0.765625 -0.0625q0.375 -0.0625 0.59375 -0.125l0 1.15625q-0.234375 0.125 -0.71875 0.203125q-0.484375 0.078125 -0.859375 0.078125q-2.890625 0 -2.890625 -3.0625l0 -5.9375l-1.4375 0l0 -0.71875l1.4375 -0.640625l0.625 -2.125l0.875 0l0 2.3125l2.90625 0l0 1.171875l-2.90625 0l0 5.875q0 0.90625 0.421875 1.390625q0.4375 0.484375 1.1875 0.484375zm7.5861816 1.25q-2.21875 0 -3.5 -1.34375q-1.28125 -1.359375 -1.28125 -3.75q0 -2.421875 1.1875 -3.84375q1.1875 -1.421875 3.1875 -1.421875q1.890625 0 2.96875 1.234375q1.09375 1.234375 1.09375 3.265625l0 0.953125l-6.875 0q0.046875 1.765625 0.890625 2.671875q0.84375 0.90625 2.375 0.90625q1.609375 0 3.1875 -0.671875l0 1.34375q-0.796875 0.34375 -1.515625 0.5q-0.71875 0.15625 -1.71875 0.15625zm-0.421875 -9.09375q-1.203125 0 -1.921875 0.796875q-0.703125 0.78125 -0.828125 2.15625l5.21875 0q0 -1.421875 -0.640625 -2.1875q-0.640625 -0.765625 -1.828125 -0.765625zm9.826172 3.796875q0 2.390625 -0.703125 4.46875q-0.703125 2.0625 -2.03125 3.5937424l-1.453125 0q1.265625 -1.7187424 1.9375 -3.7968674q0.671875 -2.09375 0.671875 -4.28125q0 -2.21875 -0.65625 -4.328125q-0.65625 -2.109375 -1.96875 -3.859375l1.46875 0q1.34375 1.59375 2.03125 3.703125q0.703125 2.109375 0.703125 4.5z" fill-rule="nonzero"/><defs><linearGradient id="p.4" gradientUnits="userSpaceOnUse" gradientTransform="matrix(7.5847140446844685 0.0 0.0 7.5847140446844685 0.0 0.0)" spreadMethod="pad" x1="80.31452815096002" y1="46.93577377800644" x2="80.31449570899969" y2="54.520487822621526"><stop offset="0.0" stop-color="#dbd4eb"/><stop offset="1.0" stop-color="#9180bb"/></linearGradient></defs><path fill="url(#p.4)" d="m609.1627 365.58267l0 0c0 -5.2952576 21.530273 -9.587921 48.089233 -9.587921c26.55896 0 48.089233 4.2926636 48.089233 9.587921l0 38.351715c0 5.2952576 -21.530273 9.587921 -48.089233 9.587921c-26.55896 0 -48.089233 -4.2926636 -48.089233 -9.587921z" fill-rule="evenodd"/><path fill="#000000" fill-opacity="0.0" d="m705.3412 365.58267l0 0c0 5.2952576 -21.530273 9.587921 -48.089233 9.587921c-26.55896 0 -48.089233 -4.2926636 -48.089233 -9.587921" fill-rule="evenodd"/><path fill="#000000" fill-opacity="0.0" d="m609.1627 365.58267l0 0c0 -5.2952576 21.530273 -9.587921 48.089233 -9.587921c26.55896 0 48.089233 4.2926636 48.089233 9.587921l0 38.351715c0 5.2952576 -21.530273 9.587921 -48.089233 9.587921c-26.55896 0 -48.089233 -4.2926636 -48.089233 -9.587921z" fill-rule="evenodd"/><path stroke="#000000" stroke-width="1.0" stroke-linejoin="round" stroke-linecap="butt" d="m705.3412 365.58267l0 0c0 5.2952576 -21.530273 9.587921 -48.089233 9.587921c-26.55896 0 -48.089233 -4.2926636 -48.089233 -9.587921" fill-rule="evenodd"/><path stroke="#000000" stroke-width="1.0" stroke-linejoin="round" stroke-linecap="butt" d="m609.1627 365.58267l0 0c0 -5.2952576 21.530273 -9.587921 48.089233 -9.587921c26.55896 0 48.089233 4.2926636 48.089233 9.587921l0 38.351715c0 5.2952576 -21.530273 9.587921 -48.089233 9.587921c-26.55896 0 -48.089233 -4.2926636 -48.089233 -9.587921z" fill-rule="evenodd"/><path fill="#000000" d="m631.75226 395.12875l-0.09375 0q-1.046875 1.53125 -3.125 1.53125q-1.96875 0 -3.0625 -1.34375q-1.078125 -1.34375 -1.078125 -3.8125q0 -2.46875 1.09375 -3.828125q1.09375 -1.375 3.046875 -1.375q2.03125 0 3.109375 1.484375l0.125 0l-0.0625 -0.71875l-0.046875 -0.703125l0 -4.0625l1.515625 0l0 14.171875l-1.234375 0l-0.1875 -1.34375zm-3.03125 0.265625q1.546875 0 2.234375 -0.84375q0.703125 -0.84375 0.703125 -2.71875l0 -0.328125q0 -2.125 -0.703125 -3.03125q-0.703125 -0.90625 -2.25 -0.90625q-1.328125 0 -2.046875 1.046875q-0.703125 1.03125 -0.703125 2.90625q0 1.921875 0.703125 2.90625q0.703125 0.96875 2.0625 0.96875zm13.807434 1.078125l-0.3125 -1.421875l-0.0625 0q-0.75 0.9375 -1.5 1.28125q-0.734375 0.328125 -1.84375 0.328125q-1.484375 0 -2.328125 -0.765625q-0.84375 -0.765625 -0.84375 -2.1875q0 -3.015625 4.828125 -3.171875l1.703125 -0.046875l0 -0.625q0 -1.171875 -0.515625 -1.734375q-0.5 -0.5625 -1.609375 -0.5625q-1.25 0 -2.828125 0.765625l-0.453125 -1.15625q0.734375 -0.390625 1.609375 -0.609375q0.875 -0.234375 1.765625 -0.234375q1.78125 0 2.640625 0.796875q0.859375 0.78125 0.859375 2.53125l0 6.8125l-1.109375 0zm-3.421875 -1.0625q1.40625 0 2.203125 -0.765625q0.8125 -0.78125 0.8125 -2.1875l0 -0.890625l-1.5 0.0625q-1.8125 0.0625 -2.609375 0.5625q-0.796875 0.484375 -0.796875 1.546875q0 0.8125 0.5 1.25q0.5 0.421875 1.390625 0.421875zm10.875732 0q0.40625 0 0.765625 -0.0625q0.375 -0.0625 0.59375 -0.125l0 1.15625q-0.234375 0.125 -0.71875 0.203125q-0.484375 0.078125 -0.859375 0.078125q-2.890625 0 -2.890625 -3.0625l0 -5.9375l-1.4375 0l0 -0.71875l1.4375 -0.640625l0.625 -2.125l0.875 0l0 2.3125l2.90625 0l0 1.171875l-2.90625 0l0 5.875q0 0.90625 0.421875 1.390625q0.4375 0.484375 1.1875 0.484375zm9.508057 1.0625l-0.3125 -1.421875l-0.0625 0q-0.75 0.9375 -1.5 1.28125q-0.734375 0.328125 -1.84375 0.328125q-1.484375 0 -2.328125 -0.765625q-0.84375 -0.765625 -0.84375 -2.1875q0 -3.015625 4.828125 -3.171875l1.703125 -0.046875l0 -0.625q0 -1.171875 -0.515625 -1.734375q-0.5 -0.5625 -1.609375 -0.5625q-1.25 0 -2.828125 0.765625l-0.453125 -1.15625q0.734375 -0.390625 1.609375 -0.609375q0.875 -0.234375 1.765625 -0.234375q1.78125 0 2.640625 0.796875q0.859375 0.78125 0.859375 2.53125l0 6.8125l-1.109375 0zm-3.421875 -1.0625q1.40625 0 2.203125 -0.765625q0.8125 -0.78125 0.8125 -2.1875l0 -0.890625l-1.5 0.0625q-1.8125 0.0625 -2.609375 0.5625q-0.796875 0.484375 -0.796875 1.546875q0 0.8125 0.5 1.25q0.5 0.421875 1.390625 0.421875z" fill-rule="nonzero"/><defs><linearGradient id="p.5" gradientUnits="userSpaceOnUse" gradientTransform="matrix(7.584716748170081 0.0 0.0 7.584716748170081 0.0 0.0)" spreadMethod="pad" x1="83.84556773899227" y1="53.074979513341084" x2="83.84554070403497" y2="60.65969626146298"><stop offset="0.0" stop-color="#dbd4eb"/><stop offset="1.0" stop-color="#9180bb"/></linearGradient></defs><path fill="url(#p.5)" d="m635.9449 412.14697l0 0c0 -5.2952576 21.530273 -9.587921 48.089233 -9.587921c26.55896 0 48.089233 4.2926636 48.089233 9.587921l0 38.351715c0 5.2952576 -21.530273 9.587921 -48.089233 9.587921c-26.55896 0 -48.089233 -4.2926636 -48.089233 -9.587921z" fill-rule="evenodd"/><path fill="#000000" fill-opacity="0.0" d="m732.12335 412.14697l0 0c0 5.295288 -21.530273 9.587921 -48.089233 9.587921c-26.55896 0 -48.089233 -4.292633 -48.089233 -9.587921" fill-rule="evenodd"/><path fill="#000000" fill-opacity="0.0" d="m635.9449 412.14697l0 0c0 -5.2952576 21.530273 -9.587921 48.089233 -9.587921c26.55896 0 48.089233 4.2926636 48.089233 9.587921l0 38.351715c0 5.2952576 -21.530273 9.587921 -48.089233 9.587921c-26.55896 0 -48.089233 -4.2926636 -48.089233 -9.587921z" fill-rule="evenodd"/><path stroke="#000000" stroke-width="1.0" stroke-linejoin="round" stroke-linecap="butt" d="m732.12335 412.14697l0 0c0 5.295288 -21.530273 9.587921 -48.089233 9.587921c-26.55896 0 -48.089233 -4.292633 -48.089233 -9.587921" fill-rule="evenodd"/><path stroke="#000000" stroke-width="1.0" stroke-linejoin="round" stroke-linecap="butt" d="m635.9449 412.14697l0 0c0 -5.2952576 21.530273 -9.587921 48.089233 -9.587921c26.55896 0 48.089233 4.2926636 48.089233 9.587921l0 38.351715c0 5.2952576 -21.530273 9.587921 -48.089233 9.587921c-26.55896 0 -48.089233 -4.2926636 -48.089233 -9.587921z" fill-rule="evenodd"/><path fill="#000000" d="m658.1974 441.69305l-0.09375 0q-1.046875 1.53125 -3.125 1.53125q-1.96875 0 -3.0625 -1.34375q-1.078125 -1.34375 -1.078125 -3.8125q0 -2.46875 1.09375 -3.828125q1.09375 -1.375 3.046875 -1.375q2.03125 0 3.109375 1.484375l0.125 0l-0.0625 -0.71875l-0.046875 -0.703125l0 -4.0625l1.515625 0l0 14.171875l-1.234375 0l-0.1875 -1.34375zm-3.03125 0.265625q1.546875 0 2.234375 -0.84375q0.703125 -0.84375 0.703125 -2.71875l0 -0.328125q0 -2.125 -0.703125 -3.03125q-0.703125 -0.90625 -2.25 -0.90625q-1.328125 0 -2.046875 1.046875q-0.703125 1.03125 -0.703125 2.90625q0 1.921875 0.703125 2.90625q0.703125 0.96875 2.0625 0.96875zm13.807434 1.078125l-0.3125 -1.421875l-0.0625 0q-0.75 0.9375 -1.5 1.28125q-0.734375 0.328125 -1.84375 0.328125q-1.484375 0 -2.328125 -0.765625q-0.84375 -0.765625 -0.84375 -2.1875q0 -3.015625 4.828125 -3.171875l1.703125 -0.046875l0 -0.625q0 -1.171875 -0.515625 -1.734375q-0.5 -0.5625 -1.609375 -0.5625q-1.25 0 -2.828125 0.765625l-0.453125 -1.15625q0.734375 -0.390625 1.609375 -0.609375q0.875 -0.234375 1.765625 -0.234375q1.78125 0 2.640625 0.796875q0.859375 0.78125 0.859375 2.53125l0 6.8125l-1.109375 0zm-3.421875 -1.0625q1.40625 0 2.203125 -0.765625q0.8125 -0.78125 0.8125 -2.1875l0 -0.890625l-1.5 0.0625q-1.8125 0.0625 -2.609375 0.5625q-0.796875 0.484375 -0.796875 1.546875q0 0.8125 0.5 1.25q0.5 0.421875 1.390625 0.421875zm10.875671 0q0.40625 0 0.765625 -0.0625q0.375 -0.0625 0.59375 -0.125l0 1.15625q-0.234375 0.125 -0.71875 0.203125q-0.484375 0.078125 -0.859375 0.078125q-2.890625 0 -2.890625 -3.0625l0 -5.9375l-1.4375 0l0 -0.71875l1.4375 -0.640625l0.625 -2.125l0.875 0l0 2.3125l2.90625 0l0 1.171875l-2.90625 0l0 5.875q0 0.90625 0.421875 1.390625q0.4375 0.484375 1.1875 0.484375zm9.508057 1.0625l-0.3125 -1.421875l-0.0625 0q-0.75 0.9375 -1.5 1.28125q-0.734375 0.328125 -1.84375 0.328125q-1.484375 0 -2.328125 -0.765625q-0.84375 -0.765625 -0.84375 -2.1875q0 -3.015625 4.828125 -3.171875l1.703125 -0.046875l0 -0.625q0 -1.171875 -0.515625 -1.734375q-0.5 -0.5625 -1.609375 -0.5625q-1.25 0 -2.828125 0.765625l-0.453125 -1.15625q0.734375 -0.390625 1.609375 -0.609375q0.875 -0.234375 1.765625 -0.234375q1.78125 0 2.640625 0.796875q0.859375 0.78125 0.859375 2.53125l0 6.8125l-1.109375 0zm-3.421875 -1.0625q1.40625 0 2.203125 -0.765625q0.8125 -0.78125 0.8125 -2.1875l0 -0.890625l-1.5 0.0625q-1.8125 0.0625 -2.609375 0.5625q-0.796875 0.484375 -0.796875 1.546875q0 0.8125 0.5 1.25q0.5 0.421875 1.390625 0.421875z" fill-rule="nonzero"/><defs><linearGradient id="p.6" gradientUnits="userSpaceOnUse" gradientTransform="matrix(7.58471404467387 0.0 0.0 7.58471404467387 0.0 0.0)" spreadMethod="pad" x1="88.11236424707022" y1="59.47446167646513" x2="88.11233721210328" y2="67.05917572109082"><stop offset="0.0" stop-color="#fff6db"/><stop offset="1.0" stop-color="#fad25c"/></linearGradient></defs><path fill="url(#p.6)" d="m668.30707 460.68503l0 0c0 -5.2952576 21.530334 -9.587921 48.089233 -9.587921c26.55896 0 48.089233 4.2926636 48.089233 9.587921l0 38.351715c0 5.2952576 -21.530273 9.587921 -48.089233 9.587921c-26.558899 0 -48.089233 -4.2926636 -48.089233 -9.587921z" fill-rule="evenodd"/><path fill="#000000" fill-opacity="0.0" d="m764.48553 460.68503l0 0c0 5.295288 -21.530273 9.587952 -48.089233 9.587952c-26.558899 0 -48.089233 -4.2926636 -48.089233 -9.587952" fill-rule="evenodd"/><path fill="#000000" fill-opacity="0.0" d="m668.30707 460.68503l0 0c0 -5.2952576 21.530334 -9.587921 48.089233 -9.587921c26.55896 0 48.089233 4.2926636 48.089233 9.587921l0 38.351715c0 5.2952576 -21.530273 9.587921 -48.089233 9.587921c-26.558899 0 -48.089233 -4.2926636 -48.089233 -9.587921z" fill-rule="evenodd"/><path stroke="#000000" stroke-width="1.0" stroke-linejoin="round" stroke-linecap="butt" d="m764.48553 460.68503l0 0c0 5.295288 -21.530273 9.587952 -48.089233 9.587952c-26.558899 0 -48.089233 -4.2926636 -48.089233 -9.587952" fill-rule="evenodd"/><path stroke="#000000" stroke-width="1.0" stroke-linejoin="round" stroke-linecap="butt" d="m668.30707 460.68503l0 0c0 -5.2952576 21.530334 -9.587921 48.089233 -9.587921c26.55896 0 48.089233 4.2926636 48.089233 9.587921l0 38.351715c0 5.2952576 -21.530273 9.587921 -48.089233 9.587921c-26.558899 0 -48.089233 -4.2926636 -48.089233 -9.587921z" fill-rule="evenodd"/><path fill="#000000" d="m688.4033 491.76236q-0.96875 0 -1.78125 -0.359375q-0.8125 -0.359375 -1.359375 -1.109375l-0.109375 0q0.109375 0.875 0.109375 1.65625l0 4.109375l-1.5 0l0 -14.46875l1.21875 0l0.21875 1.359375l0.0625 0q0.59375 -0.8125 1.359375 -1.171875q0.78125 -0.375 1.78125 -0.375q1.984375 0 3.0625 1.359375q1.078125 1.359375 1.078125 3.8125q0 2.453125 -1.09375 3.828125q-1.09375 1.359375 -3.046875 1.359375zm-0.21875 -9.0625q-1.53125 0 -2.21875 0.84375q-0.671875 0.84375 -0.703125 2.6875l0 0.34375q0 2.109375 0.703125 3.015625q0.703125 0.90625 2.25 0.90625q1.296875 0 2.03125 -1.046875q0.734375 -1.046875 0.734375 -2.890625q0 -1.875 -0.734375 -2.859375q-0.734375 -1.0 -2.0625 -1.0zm13.151184 8.875l-0.3125 -1.421875l-0.0625 0q-0.75 0.9375 -1.5 1.28125q-0.734375 0.328125 -1.84375 0.328125q-1.484375 0 -2.328125 -0.765625q-0.84375 -0.765625 -0.84375 -2.1875q0 -3.015625 4.828125 -3.171875l1.703125 -0.046875l0 -0.625q0 -1.171875 -0.515625 -1.734375q-0.5 -0.5625 -1.609375 -0.5625q-1.25 0 -2.828125 0.765625l-0.453125 -1.15625q0.734375 -0.390625 1.609375 -0.609375q0.875 -0.234375 1.765625 -0.234375q1.78125 0 2.640625 0.796875q0.859375 0.78125 0.859375 2.53125l0 6.8125l-1.109375 0zm-3.421875 -1.0625q1.40625 0 2.203125 -0.765625q0.8125 -0.78125 0.8125 -2.1875l0 -0.890625l-1.5 0.0625q-1.8125 0.0625 -2.609375 0.5625q-0.796875 0.484375 -0.796875 1.546875q0 0.8125 0.5 1.25q0.5 0.421875 1.390625 0.421875zm12.203857 -9.109375q0.671875 0 1.1875 0.109375l-0.203125 1.40625q-0.625 -0.140625 -1.09375 -0.140625q-1.203125 0 -2.078125 0.984375q-0.859375 0.984375 -0.859375 2.453125l0 5.359375l-1.5 0l0 -9.984375l1.234375 0l0.1875 1.84375l0.0625 0q0.5625 -0.96875 1.34375 -1.5q0.78125 -0.53125 1.71875 -0.53125zm4.5686646 10.171875l-1.5 0l0 -9.984375l1.5 0l0 9.984375zm-1.640625 -12.6875q0 -0.515625 0.25 -0.75q0.265625 -0.25 0.65625 -0.25q0.359375 0 0.625 0.25q0.265625 0.234375 0.265625 0.75q0 0.515625 -0.265625 0.765625q-0.265625 0.25 -0.625 0.25q-0.390625 0 -0.65625 -0.25q-0.25 -0.25 -0.25 -0.765625zm8.078064 11.625q0.40625 0 0.765625 -0.0625q0.375 -0.0625 0.59375 -0.125l0 1.15625q-0.234375 0.125 -0.71875 0.203125q-0.484375 0.078125 -0.859375 0.078125q-2.890625 0 -2.890625 -3.0625l0 -5.9375l-1.4375 0l0 -0.71875l1.4375 -0.640625l0.625 -2.125l0.875 0l0 2.3125l2.90625 0l0 1.171875l-2.90625 0l0 5.875q0 0.90625 0.421875 1.390625q0.4375 0.484375 1.1875 0.484375zm1.7736816 -8.921875l1.625 0l2.1875 5.6875q0.71875 1.953125 0.890625 2.828125l0.078125 0q0.109375 -0.46875 0.484375 -1.59375q0.390625 -1.125 2.484375 -6.921875l1.609375 0l-4.28125 11.375q-0.640625 1.671875 -1.5 2.375q-0.84375 0.71875 -2.078125 0.71875q-0.703125 0 -1.375 -0.15625l0 -1.21875q0.5 0.109375 1.125 0.109375q1.5625 0 2.21875 -1.75l0.5625 -1.421875l-4.03125 -10.03125z" fill-rule="nonzero"/><path fill="#000000" fill-opacity="0.0" d="m532.042 307.09186l270.5512 0l0 39.905518l-270.5512 0z" fill-rule="evenodd"/><path fill="#000000" d="m554.98956 324.52713q0 2.015625 -1.390625 3.109375q-1.375 1.09375 -3.9375 1.09375l-1.578125 0l0 5.234375l-1.546875 0l0 -13.3125l3.453125 0q5.0 0 5.0 3.875zm-6.90625 2.875l1.390625 0q2.0625 0 2.984375 -0.65625q0.921875 -0.671875 0.921875 -2.140625q0 -1.328125 -0.875 -1.96875q-0.859375 -0.65625 -2.6875 -0.65625l-1.734375 0l0 5.421875zm14.013245 -3.609375q0.671875 0 1.1875 0.109375l-0.203125 1.40625q-0.625 -0.140625 -1.09375 -0.140625q-1.203125 0 -2.078125 0.984375q-0.859375 0.984375 -0.859375 2.453125l0 5.359375l-1.5 0l0 -9.984375l1.234375 0l0.1875 1.84375l0.0625 0q0.5625 -0.96875 1.34375 -1.5q0.78125 -0.53125 1.71875 -0.53125zm11.67804 5.171875q0 2.4375 -1.234375 3.8125q-1.21875 1.375 -3.390625 1.375q-1.34375 0 -2.390625 -0.625q-1.03125 -0.640625 -1.59375 -1.8125q-0.5625 -1.171875 -0.5625 -2.75q0 -2.4375 1.21875 -3.796875q1.21875 -1.375 3.390625 -1.375q2.09375 0 3.328125 1.40625q1.234375 1.390625 1.234375 3.765625zm-7.609375 0q0 1.90625 0.765625 2.921875q0.765625 1.0 2.25 1.0q1.484375 0 2.25 -1.0q0.78125 -1.0 0.78125 -2.921875q0 -1.90625 -0.78125 -2.890625q-0.765625 -0.984375 -2.265625 -0.984375q-1.484375 0 -2.25 0.96875q-0.75 0.96875 -0.75 2.90625zm13.487183 3.9375q0.40625 0 0.765625 -0.0625q0.375 -0.0625 0.59375 -0.125l0 1.15625q-0.234375 0.125 -0.71875 0.203125q-0.484375 0.078125 -0.859375 0.078125q-2.890625 0 -2.890625 -3.0625l0 -5.9375l-1.4375 0l0 -0.71875l1.4375 -0.640625l0.625 -2.125l0.875 0l0 2.3125l2.90625 0l0 1.171875l-2.90625 0l0 5.875q0 0.90625 0.421875 1.390625q0.4375 0.484375 1.1875 0.484375zm7.5861816 1.25q-2.21875 0 -3.5 -1.34375q-1.28125 -1.359375 -1.28125 -3.75q0 -2.421875 1.1875 -3.84375q1.1875 -1.421875 3.1875 -1.421875q1.890625 0 2.96875 1.234375q1.09375 1.234375 1.09375 3.265625l0 0.953125l-6.875 0q0.046875 1.765625 0.890625 2.671875q0.84375 0.90625 2.375 0.90625q1.609375 0 3.1875 -0.671875l0 1.34375q-0.796875 0.34375 -1.515625 0.5q-0.71875 0.15625 -1.71875 0.15625zm-0.421875 -9.09375q-1.203125 0 -1.921875 0.796875q-0.703125 0.78125 -0.828125 2.15625l5.21875 0q0 -1.421875 -0.640625 -2.1875q-0.640625 -0.765625 -1.828125 -0.765625zm10.654297 9.09375q-2.171875 0 -3.359375 -1.328125q-1.1875 -1.34375 -1.1875 -3.78125q0 -2.515625 1.203125 -3.875q1.21875 -1.375 3.4375 -1.375q0.71875 0 1.4375 0.15625q0.734375 0.15625 1.140625 0.375l-0.46875 1.28125q-0.5 -0.203125 -1.09375 -0.328125q-0.59375 -0.140625 -1.046875 -0.140625q-3.046875 0 -3.046875 3.875q0 1.84375 0.734375 2.828125q0.75 0.984375 2.21875 0.984375q1.25 0 2.546875 -0.53125l0 1.328125q-1.0 0.53125 -2.515625 0.53125zm8.11615 -1.25q0.40625 0 0.765625 -0.0625q0.375 -0.0625 0.59375 -0.125l0 1.15625q-0.234375 0.125 -0.71875 0.203125q-0.484375 0.078125 -0.859375 0.078125q-2.890625 0 -2.890625 -3.0625l0 -5.9375l-1.4375 0l0 -0.71875l1.4375 -0.640625l0.625 -2.125l0.875 0l0 2.3125l2.90625 0l0 1.171875l-2.90625 0l0 5.875q0 0.90625 0.421875 1.390625q0.4375 0.484375 1.1875 0.484375zm4.8674316 1.0625l-1.5 0l0 -9.984375l1.5 0l0 9.984375zm-1.640625 -12.6875q0 -0.515625 0.25 -0.75q0.265625 -0.25 0.65625 -0.25q0.359375 0 0.625 0.25q0.265625 0.234375 0.265625 0.75q0 0.515625 -0.265625 0.765625q-0.265625 0.25 -0.625 0.25q-0.390625 0 -0.65625 -0.25q-0.25 -0.25 -0.25 -0.765625zm13.468689 7.6875q0 2.4375 -1.234375 3.8125q-1.21875 1.375 -3.390625 1.375q-1.34375 0 -2.390625 -0.625q-1.03125 -0.640625 -1.59375 -1.8125q-0.5625 -1.171875 -0.5625 -2.75q0 -2.4375 1.21875 -3.796875q1.21875 -1.375 3.390625 -1.375q2.09375 0 3.328125 1.40625q1.234375 1.390625 1.234375 3.765625zm-7.609375 0q0 1.90625 0.765625 2.921875q0.765625 1.0 2.25 1.0q1.484375 0 2.25 -1.0q0.78125 -1.0 0.78125 -2.921875q0 -1.90625 -0.78125 -2.890625q-0.765625 -0.984375 -2.265625 -0.984375q-1.484375 0 -2.25 0.96875q-0.75 0.96875 -0.75 2.90625zm17.096619 5.0l0 -6.453125q0 -1.21875 -0.5625 -1.8125q-0.546875 -0.609375 -1.734375 -0.609375q-1.5625 0 -2.296875 0.84375q-0.734375 0.84375 -0.734375 2.796875l0 5.234375l-1.5 0l0 -9.984375l1.21875 0l0.25 1.359375l0.078125 0q0.453125 -0.734375 1.296875 -1.140625q0.84375 -0.40625 1.875 -0.40625q1.796875 0 2.703125 0.875q0.921875 0.875 0.921875 2.78125l0 6.515625l-1.515625 0zm15.90625 -2.71875q0 1.390625 -1.046875 2.15625q-1.03125 0.75 -2.90625 0.75q-1.984375 0 -3.09375 -0.640625l0 -1.390625q0.71875 0.359375 1.53125 0.578125q0.828125 0.203125 1.59375 0.203125q1.1875 0 1.828125 -0.375q0.640625 -0.390625 0.640625 -1.15625q0 -0.578125 -0.515625 -1.0q-0.5 -0.421875 -1.96875 -0.984375q-1.390625 -0.515625 -1.984375 -0.890625q-0.578125 -0.390625 -0.875 -0.875q-0.28125 -0.5 -0.28125 -1.1875q0 -1.21875 0.984375 -1.921875q1.0 -0.71875 2.734375 -0.71875q1.609375 0 3.140625 0.65625l-0.53125 1.234375q-1.5 -0.625 -2.71875 -0.625q-1.078125 0 -1.625 0.34375q-0.546875 0.34375 -0.546875 0.921875q0 0.40625 0.203125 0.6875q0.203125 0.28125 0.65625 0.546875q0.453125 0.25 1.75 0.734375q1.78125 0.640625 2.40625 1.296875q0.625 0.65625 0.625 1.65625zm6.4468384 2.90625q-2.171875 0 -3.359375 -1.328125q-1.1875 -1.34375 -1.1875 -3.78125q0 -2.515625 1.203125 -3.875q1.21875 -1.375 3.4375 -1.375q0.71875 0 1.4375 0.15625q0.734375 0.15625 1.140625 0.375l-0.46875 1.28125q-0.5 -0.203125 -1.09375 -0.328125q-0.59375 -0.140625 -1.046875 -0.140625q-3.046875 0 -3.046875 3.875q0 1.84375 0.734375 2.828125q0.75 0.984375 2.21875 0.984375q1.25 0 2.546875 -0.53125l0 1.328125q-1.0 0.53125 -2.515625 0.53125zm11.725525 -0.1875l0 -6.453125q0 -1.21875 -0.5625 -1.8125q-0.546875 -0.609375 -1.734375 -0.609375q-1.578125 0 -2.3125 0.859375q-0.71875 0.84375 -0.71875 2.796875l0 5.21875l-1.5 0l0 -14.171875l1.5 0l0 4.28125q0 0.78125 -0.0625 1.296875l0.09375 0q0.4375 -0.71875 1.265625 -1.125q0.828125 -0.421875 1.875 -0.421875q1.828125 0 2.75 0.875q0.921875 0.859375 0.921875 2.75l0 6.515625l-1.515625 0zm8.841248 0.1875q-2.21875 0 -3.5 -1.34375q-1.28125 -1.359375 -1.28125 -3.75q0 -2.421875 1.1875 -3.84375q1.1875 -1.421875 3.1875 -1.421875q1.890625 0 2.96875 1.234375q1.09375 1.234375 1.09375 3.265625l0 0.953125l-6.875 0q0.046875 1.765625 0.890625 2.671875q0.84375 0.90625 2.375 0.90625q1.609375 0 3.1875 -0.671875l0 1.34375q-0.796875 0.34375 -1.515625 0.5q-0.71875 0.15625 -1.71875 0.15625zm-0.421875 -9.09375q-1.203125 0 -1.921875 0.796875q-0.703125 0.78125 -0.828125 2.15625l5.21875 0q0 -1.421875 -0.640625 -2.1875q-0.640625 -0.765625 -1.828125 -0.765625zm19.388733 8.90625l0 -6.5q0 -1.1875 -0.515625 -1.78125q-0.5 -0.59375 -1.578125 -0.59375q-1.40625 0 -2.09375 0.8125q-0.671875 0.796875 -0.671875 2.484375l0 5.578125l-1.5 0l0 -6.5q0 -1.1875 -0.515625 -1.78125q-0.515625 -0.59375 -1.59375 -0.59375q-1.421875 0 -2.09375 0.859375q-0.65625 0.84375 -0.65625 2.78125l0 5.234375l-1.5 0l0 -9.984375l1.21875 0l0.25 1.359375l0.078125 0q0.421875 -0.71875 1.203125 -1.125q0.78125 -0.421875 1.75 -0.421875q2.328125 0 3.0625 1.703125l0.0625 0q0.453125 -0.78125 1.296875 -1.234375q0.84375 -0.46875 1.9375 -0.46875q1.6875 0 2.53125 0.875q0.84375 0.875 0.84375 2.78125l0 6.515625l-1.515625 0zm8.853577 0.1875q-2.21875 0 -3.5 -1.34375q-1.28125 -1.359375 -1.28125 -3.75q0 -2.421875 1.1875 -3.84375q1.1875 -1.421875 3.1875 -1.421875q1.890625 0 2.96875 1.234375q1.09375 1.234375 1.09375 3.265625l0 0.953125l-6.875 0q0.046875 1.765625 0.890625 2.671875q0.84375 0.90625 2.375 0.90625q1.609375 0 3.1875 -0.671875l0 1.34375q-0.796875 0.34375 -1.515625 0.5q-0.71875 0.15625 -1.71875 0.15625zm-0.421875 -9.09375q-1.203125 0 -1.921875 0.796875q-0.703125 0.78125 -0.828125 2.15625l5.21875 0q0 -1.421875 -0.640625 -2.1875q-0.640625 -0.765625 -1.828125 -0.765625zm10.656799 3.796875q0 -2.421875 0.703125 -4.515625q0.703125 -2.109375 2.03125 -3.6875l1.484375 0q-1.3125 1.75 -1.984375 3.859375q-0.65625 2.109375 -0.65625 4.328125q0 2.1875 0.671875 4.28125q0.6875 2.078125 1.953125 3.796875l-1.46875 0q-1.328125 -1.546875 -2.03125 -3.609375q-0.703125 -2.078125 -0.703125 -4.453125zm10.598511 5.296875q-2.21875 0 -3.5 -1.34375q-1.28125 -1.359375 -1.28125 -3.75q0 -2.421875 1.1875 -3.84375q1.1875 -1.421875 3.1875 -1.421875q1.890625 0 2.96875 1.234375q1.09375 1.234375 1.09375 3.265625l0 0.953125l-6.875 0q0.046875 1.765625 0.890625 2.671875q0.84375 0.90625 2.375 0.90625q1.609375 0 3.1875 -0.671875l0 1.34375q-0.796875 0.34375 -1.515625 0.5q-0.71875 0.15625 -1.71875 0.15625zm-0.421875 -9.09375q-1.203125 0 -1.921875 0.796875q-0.703125 0.78125 -0.828125 2.15625l5.21875 0q0 -1.421875 -0.640625 -2.1875q-0.640625 -0.765625 -1.828125 -0.765625zm11.216797 -1.265625q0.671875 0 1.1875 0.109375l-0.203125 1.40625q-0.625 -0.140625 -1.09375 -0.140625q-1.203125 0 -2.078125 0.984375q-0.859375 0.984375 -0.859375 2.453125l0 5.359375l-1.5 0l0 -9.984375l1.234375 0l0.1875 1.84375l0.0625 0q0.5625 -0.96875 1.34375 -1.5q0.78125 -0.53125 1.71875 -0.53125zm9.20929 10.171875l-0.3125 -1.421875l-0.0625 0q-0.75 0.9375 -1.5 1.28125q-0.734375 0.328125 -1.84375 0.328125q-1.484375 0 -2.328125 -0.765625q-0.84375 -0.765625 -0.84375 -2.1875q0 -3.015625 4.828125 -3.171875l1.703125 -0.046875l0 -0.625q0 -1.171875 -0.515625 -1.734375q-0.5 -0.5625 -1.609375 -0.5625q-1.25 0 -2.828125 0.765625l-0.453125 -1.15625q0.734375 -0.390625 1.609375 -0.609375q0.875 -0.234375 1.765625 -0.234375q1.78125 0 2.640625 0.796875q0.859375 0.78125 0.859375 2.53125l0 6.8125l-1.109375 0zm-3.421875 -1.0625q1.40625 0 2.203125 -0.765625q0.8125 -0.78125 0.8125 -2.1875l0 -0.890625l-1.5 0.0625q-1.8125 0.0625 -2.609375 0.5625q-0.796875 0.484375 -0.796875 1.546875q0 0.8125 0.5 1.25q0.5 0.421875 1.390625 0.421875zm14.094482 -1.65625q0 1.390625 -1.046875 2.15625q-1.03125 0.75 -2.90625 0.75q-1.984375 0 -3.09375 -0.640625l0 -1.390625q0.71875 0.359375 1.53125 0.578125q0.828125 0.203125 1.59375 0.203125q1.1875 0 1.828125 -0.375q0.640625 -0.390625 0.640625 -1.15625q0 -0.578125 -0.515625 -1.0q-0.5 -0.421875 -1.96875 -0.984375q-1.390625 -0.515625 -1.984375 -0.890625q-0.578125 -0.390625 -0.875 -0.875q-0.28125 -0.5 -0.28125 -1.1875q0 -1.21875 0.984375 -1.921875q1.0 -0.71875 2.734375 -0.71875q1.609375 0 3.140625 0.65625l-0.53125 1.234375q-1.5 -0.625 -2.71875 -0.625q-1.078125 0 -1.625 0.34375q-0.546875 0.34375 -0.546875 0.921875q0 0.40625 0.203125 0.6875q0.203125 0.28125 0.65625 0.546875q0.453125 0.25 1.75 0.734375q1.78125 0.640625 2.40625 1.296875q0.625 0.65625 0.625 1.65625zm3.8843384 -7.265625l0 6.484375q0 1.21875 0.546875 1.828125q0.5625 0.59375 1.734375 0.59375q1.578125 0 2.296875 -0.859375q0.71875 -0.859375 0.71875 -2.796875l0 -5.25l1.515625 0l0 9.984375l-1.25 0l-0.21875 -1.34375l-0.078125 0q-0.46875 0.75 -1.296875 1.140625q-0.8125 0.390625 -1.875 0.390625q-1.8125 0 -2.71875 -0.859375q-0.90625 -0.875 -0.90625 -2.78125l0 -6.53125l1.53125 0zm14.575623 -0.1875q0.671875 0 1.1875 0.109375l-0.203125 1.40625q-0.625 -0.140625 -1.09375 -0.140625q-1.203125 0 -2.078125 0.984375q-0.859375 0.984375 -0.859375 2.453125l0 5.359375l-1.5 0l0 -9.984375l1.234375 0l0.1875 1.84375l0.0625 0q0.5625 -0.96875 1.34375 -1.5q0.78125 -0.53125 1.71875 -0.53125zm7.2874146 10.359375q-2.21875 0 -3.5 -1.34375q-1.28125 -1.359375 -1.28125 -3.75q0 -2.421875 1.1875 -3.84375q1.1875 -1.421875 3.1875 -1.421875q1.890625 0 2.96875 1.234375q1.09375 1.234375 1.09375 3.265625l0 0.953125l-6.875 0q0.046875 1.765625 0.890625 2.671875q0.84375 0.90625 2.375 0.90625q1.609375 0 3.1875 -0.671875l0 1.34375q-0.796875 0.34375 -1.515625 0.5q-0.71875 0.15625 -1.71875 0.15625zm-0.421875 -9.09375q-1.203125 0 -1.921875 0.796875q-0.703125 0.78125 -0.828125 2.15625l5.21875 0q0 -1.421875 -0.640625 -2.1875q-0.640625 -0.765625 -1.828125 -0.765625zm9.826172 3.796875q0 2.390625 -0.703125 4.46875q-0.703125 2.0625 -2.03125 3.59375l-1.453125 0q1.265625 -1.71875 1.9375 -3.796875q0.671875 -2.09375 0.671875 -4.28125q0 -2.21875 -0.65625 -4.328125q-0.65625 -2.109375 -1.96875 -3.859375l1.46875 0q1.34375 1.59375 2.03125 3.703125q0.703125 2.109375 0.703125 4.5z" fill-rule="nonzero"/><path fill="#000000" fill-opacity="0.0" d="m443.14697 177.71129l45.826782 0l0 42.23622l-45.826782 0z" fill-rule="evenodd"/><path fill="#000000" d="m461.49072 201.08441q0 1.765625 -1.28125 2.75q-1.265625 0.984375 -3.453125 0.984375q-2.375 0 -3.640625 -0.609375l0 -1.5q0.8125 0.34375 1.78125 0.546875q0.96875 0.203125 1.921875 0.203125q1.546875 0 2.328125 -0.578125q0.78125 -0.59375 0.78125 -1.640625q0 -0.703125 -0.28125 -1.140625q-0.28125 -0.4375 -0.9375 -0.8125q-0.640625 -0.375 -1.96875 -0.84375q-1.859375 -0.671875 -2.65625 -1.578125q-0.796875 -0.921875 -0.796875 -2.375q0 -1.546875 1.15625 -2.453125q1.15625 -0.921875 3.0625 -0.921875q1.984375 0 3.65625 0.734375l-0.484375 1.34375q-1.65625 -0.6875 -3.21875 -0.6875q-1.21875 0 -1.921875 0.53125q-0.6875 0.53125 -0.6875 1.46875q0 0.6875 0.25 1.140625q0.265625 0.4375 0.859375 0.8125q0.609375 0.359375 1.859375 0.796875q2.09375 0.75 2.875 1.609375q0.796875 0.859375 0.796875 2.21875zm10.0672 -6.640625q0 1.28125 -0.71875 2.09375q-0.71875 0.8125 -2.03125 1.078125l0 0.078125q1.609375 0.203125 2.375 1.03125q0.78125 0.8125 0.78125 2.140625q0 1.890625 -1.328125 2.921875q-1.3125 1.03125 -3.75 1.03125q-1.0625 0 -1.9375 -0.171875q-0.875 -0.15625 -1.703125 -0.546875l0 -1.453125q0.859375 0.4375 1.84375 0.65625q0.984375 0.21875 1.859375 0.21875q3.4375 0 3.4375 -2.703125q0 -2.421875 -3.796875 -2.421875l-1.3125 0l0 -1.296875l1.328125 0q1.5625 0 2.46875 -0.6875q0.90625 -0.6875 0.90625 -1.90625q0 -0.984375 -0.671875 -1.53125q-0.65625 -0.5625 -1.8125 -0.5625q-0.875 0 -1.65625 0.25q-0.765625 0.234375 -1.765625 0.859375l-0.765625 -1.015625q0.828125 -0.640625 1.890625 -1.015625q1.078125 -0.375 2.265625 -0.375q1.9375 0 3.015625 0.890625q1.078125 0.890625 1.078125 2.4375z" fill-rule="nonzero"/><path fill="#000000" fill-opacity="0.0" d="m465.94226 405.7454l45.826782 0l0 42.236237l-45.826782 0z" fill-rule="evenodd"/><path fill="#000000" d="m484.286 429.11853q0 1.765625 -1.28125 2.75q-1.265625 0.984375 -3.453125 0.984375q-2.375 0 -3.640625 -0.609375l0 -1.5q0.8125 0.34375 1.78125 0.546875q0.96875 0.203125 1.921875 0.203125q1.546875 0 2.328125 -0.578125q0.78125 -0.59375 0.78125 -1.640625q0 -0.703125 -0.28125 -1.140625q-0.28125 -0.4375 -0.9375 -0.8125q-0.640625 -0.375 -1.96875 -0.84375q-1.859375 -0.671875 -2.65625 -1.578125q-0.796875 -0.921875 -0.796875 -2.375q0 -1.546875 1.15625 -2.453125q1.15625 -0.921875 3.0625 -0.921875q1.984375 0 3.65625 0.734375l-0.484375 1.34375q-1.65625 -0.6875 -3.21875 -0.6875q-1.21875 0 -1.921875 0.53125q-0.6875 0.53125 -0.6875 1.46875q0 0.6875 0.25 1.140625q0.265625 0.4375 0.859375 0.8125q0.609375 0.359375 1.859375 0.796875q2.09375 0.75 2.875 1.609375q0.796875 0.859375 0.796875 2.21875zm10.0672 -6.640625q0 1.28125 -0.71875 2.09375q-0.71875 0.8125 -2.03125 1.078125l0 0.078125q1.609375 0.203125 2.375 1.03125q0.78125 0.8125 0.78125 2.140625q0 1.890625 -1.328125 2.921875q-1.3125 1.03125 -3.75 1.03125q-1.0625 0 -1.9375 -0.171875q-0.875 -0.15625 -1.703125 -0.546875l0 -1.453125q0.859375 0.4375 1.84375 0.65625q0.984375 0.21875 1.859375 0.21875q3.4375 0 3.4375 -2.703125q0 -2.421875 -3.796875 -2.421875l-1.3125 0l0 -1.296875l1.328125 0q1.5625 0 2.46875 -0.6875q0.90625 -0.6875 0.90625 -1.90625q0 -0.984375 -0.671875 -1.53125q-0.65625 -0.5625 -1.8125 -0.5625q-0.875 0 -1.65625 0.25q-0.765625 0.234375 -1.765625 0.859375l-0.765625 -1.015625q0.828125 -0.640625 1.890625 -1.015625q1.078125 -0.375 2.265625 -0.375q1.9375 0 3.015625 0.890625q1.078125 0.890625 1.078125 2.4375z" fill-rule="nonzero"/><defs><radialGradient id="p.7" gradientUnits="userSpaceOnUse" gradientTransform="matrix(9.675018947467663 0.0 0.0 9.675018947467663 0.0 0.0)" spreadMethod="pad" cx="32.30849505665168" cy="32.963373154529485" fx="32.30849505665168" fy="32.963373154529485" r="9.675019264221191"><stop offset="0.0" stop-color="#dcecd5"/><stop offset="1.0" stop-color="#93bc81"/></radialGradient></defs><path fill="url(#p.7)" d="m264.27036 262.90552l72.47241 0l0 136.18896l-72.47241 0z" fill-rule="evenodd"/><defs><radialGradient id="p.8" gradientUnits="userSpaceOnUse" gradientTransform="matrix(9.675018947467663 0.0 0.0 9.675018947467663 0.0 0.0)" spreadMethod="pad" cx="32.30849505665168" cy="32.963373154529485" fx="32.30849505665168" fy="32.963373154529485" r="9.675019264221191"><stop offset="0.0" stop-color="#dcecd5"/><stop offset="1.0" stop-color="#93bc81"/></radialGradient></defs><path fill="url(#p.8)" d="m336.74277 262.90552l24.157501 -24.157486l0 136.18898l-24.157501 24.15747z" fill-rule="evenodd"/><defs><radialGradient id="p.9" gradientUnits="userSpaceOnUse" gradientTransform="matrix(9.675018947467663 0.0 0.0 9.675018947467663 0.0 0.0)" spreadMethod="pad" cx="32.30849505665168" cy="32.963373154529485" fx="32.30849505665168" fy="32.963373154529485" r="9.675019264221191"><stop offset="0.0" stop-color="#dcecd5"/><stop offset="1.0" stop-color="#93bc81"/></radialGradient></defs><path fill="url(#p.9)" d="m264.27036 262.90552l24.15747 -24.157486l72.47244 0l-24.157501 24.157486z" fill-rule="evenodd"/><path fill="#000000" fill-opacity="0.0" d="m264.27036 262.90552l24.15747 -24.157486l72.47244 0l0 136.18898l-24.157501 24.15747l-72.47241 0zm0 0l72.47241 0l24.157501 -24.157486m-24.157501 24.157486l0 136.18896" fill-rule="evenodd"/><path fill="#000000" fill-opacity="0.2" d="m336.74277 262.90552l24.157501 -24.157486l0 136.18898l-24.157501 24.15747z" fill-rule="evenodd"/><path fill="#ffffff" fill-opacity="0.2" d="m264.27036 262.90552l24.15747 -24.157486l72.47244 0l-24.157501 24.157486z" fill-rule="evenodd"/><path stroke="#000000" stroke-width="1.0" stroke-linejoin="round" stroke-linecap="butt" d="m264.27036 262.90552l24.15747 -24.157486l72.47244 0l0 136.18898l-24.157501 24.15747l-72.47241 0zm0 0l72.47241 0l24.157501 -24.157486m-24.157501 24.157486l0 136.18896" fill-rule="evenodd"/><path fill="#000000" d="m279.11203 332.11002l0 4.75l-1.328125 0l0 -11.421875l3.125 0q2.109375 0 3.109375 0.8125q1.0 0.796875 1.0 2.40625q0 2.265625 -2.296875 3.0625l3.109375 5.140625l-1.578125 0l-2.765625 -4.75l-2.375 0zm0 -1.140625l1.8125 0q1.40625 0 2.0625 -0.5625q0.65625 -0.5625 0.65625 -1.671875q0 -1.140625 -0.671875 -1.640625q-0.65625 -0.5 -2.140625 -0.5l-1.71875 0l0 4.375zm15.734375 5.890625l-1.421875 -3.640625l-4.578125 0l-1.40625 3.640625l-1.34375 0l4.515625 -11.46875l1.125 0l4.484375 11.46875l-1.375 0zm-1.828125 -4.828125l-1.328125 -3.546875q-0.265625 -0.671875 -0.53125 -1.640625q-0.171875 0.75 -0.5 1.640625l-1.34375 3.546875l3.703125 0zm13.890625 -1.0q0 2.828125 -1.53125 4.328125q-1.53125 1.5 -4.421875 1.5l-3.15625 0l0 -11.421875l3.5 0q2.65625 0 4.125 1.484375q1.484375 1.46875 1.484375 4.109375zm-1.40625 0.046875q0 -2.234375 -1.125 -3.359375q-1.109375 -1.140625 -3.328125 -1.140625l-1.921875 0l0 9.125l1.609375 0q2.375 0 3.5625 -1.15625q1.203125 -1.171875 1.203125 -3.46875zm3.9609375 5.78125l0 -11.421875l1.328125 0l0 11.421875l-1.328125 0zm14.3671875 -5.734375q0 2.75 -1.390625 4.328125q-1.375 1.5625 -3.84375 1.5625q-2.53125 0 -3.90625 -1.546875q-1.359375 -1.546875 -1.359375 -4.359375q0 -2.78125 1.375 -4.3125q1.375 -1.546875 3.90625 -1.546875q2.453125 0 3.828125 1.5625q1.390625 1.5625 1.390625 4.3125zm-9.09375 0q0 2.328125 0.984375 3.53125q0.984375 1.1875 2.875 1.1875q1.890625 0 2.859375 -1.1875q0.96875 -1.203125 0.96875 -3.53125q0 -2.296875 -0.96875 -3.484375q-0.953125 -1.203125 -2.84375 -1.203125q-1.90625 0 -2.890625 1.203125q-0.984375 1.203125 -0.984375 3.484375z" fill-rule="nonzero"/><defs><linearGradient id="p.10" gradientUnits="userSpaceOnUse" gradientTransform="matrix(7.808767481100282 0.0 0.0 7.808767481100282 0.0 0.0)" spreadMethod="pad" x1="8.058107078579512" y1="38.36384323824947" x2="8.0580788498698" y2="46.17261071929873"><stop offset="0.0" stop-color="#f5d0d0"/><stop offset="1.0" stop-color="#d96868"/></linearGradient></defs><path fill="url(#p.10)" d="m62.923885 309.73752l0 0c0 -5.6127014 4.550007 -10.16272 10.162731 -10.16272l107.32809 0c2.6953125 0 5.280243 1.0707092 7.1861267 2.976593c1.9058838 1.9058838 2.976593 4.490814 2.976593 7.1861267l0 40.65094c0 5.6127014 -4.550003 10.16272 -10.16272 10.16272l-107.32809 0c-5.6127243 0 -10.162731 -4.5500183 -10.162731 -10.16272z" fill-rule="evenodd"/><path stroke="#000000" stroke-width="1.0" stroke-linejoin="round" stroke-linecap="butt" d="m62.923885 309.73752l0 0c0 -5.6127014 4.550007 -10.16272 10.162731 -10.16272l107.32809 0c2.6953125 0 5.280243 1.0707092 7.1861267 2.976593c1.9058838 1.9058838 2.976593 4.490814 2.976593 7.1861267l0 40.65094c0 5.6127014 -4.550003 10.16272 -10.16272 10.16272l-107.32809 0c-5.6127243 0 -10.162731 -4.5500183 -10.162731 -10.16272z" fill-rule="evenodd"/><path fill="#000000" d="m90.68209 336.983l-1.65625 -4.234375l-5.34375 0l-1.640625 4.234375l-1.5625 0l5.265625 -13.375l1.296875 0l5.25 13.375l-1.609375 0zm-2.140625 -5.625l-1.546875 -4.125q-0.296875 -0.796875 -0.625 -1.921875q-0.203125 0.875 -0.578125 1.921875l-1.5625 4.125l4.3125 0zm9.993408 5.8125q-0.96875 0 -1.78125 -0.359375q-0.8125 -0.359375 -1.359375 -1.109375l-0.109375 0q0.109375 0.875 0.109375 1.65625l0 4.109375l-1.5 0l0 -14.46875l1.21875 0l0.21875 1.359375l0.0625 0q0.59375 -0.8125 1.359375 -1.171875q0.78125 -0.375 1.78125 -0.375q1.984375 0 3.0625 1.359375q1.078125 1.359375 1.078125 3.8125q0 2.453125 -1.09375 3.828125q-1.09375 1.359375 -3.046875 1.359375zm-0.21875 -9.0625q-1.53125 0 -2.21875 0.84375q-0.671875 0.84375 -0.703125 2.6875l0 0.34375q0 2.109375 0.703125 3.015625q0.703125 0.90625 2.25 0.90625q1.296875 0 2.03125 -1.046875q0.734375 -1.046875 0.734375 -2.890625q0 -1.875 -0.734375 -2.859375q-0.734375 -1.0 -2.0625 -1.0zm11.651169 9.0625q-0.96875 0 -1.78125 -0.359375q-0.8125 -0.359375 -1.359375 -1.109375l-0.109375 0q0.109375 0.875 0.109375 1.65625l0 4.109375l-1.5 0l0 -14.46875l1.21875 0l0.21875 1.359375l0.0625 0q0.59375 -0.8125 1.359375 -1.171875q0.78125 -0.375 1.78125 -0.375q1.984375 0 3.0625 1.359375q1.078125 1.359375 1.078125 3.8125q0 2.453125 -1.09375 3.828125q-1.09375 1.359375 -3.046875 1.359375zm-0.21875 -9.0625q-1.53125 0 -2.21875 0.84375q-0.671875 0.84375 -0.703125 2.6875l0 0.34375q0 2.109375 0.703125 3.015625q0.703125 0.90625 2.25 0.90625q1.296875 0 2.03125 -1.046875q0.734375 -1.046875 0.734375 -2.890625q0 -1.875 -0.734375 -2.859375q-0.734375 -1.0 -2.0625 -1.0zm8.510544 8.875l-1.5 0l0 -14.171875l1.5 0l0 14.171875zm4.7187195 0l-1.5 0l0 -9.984375l1.5 0l0 9.984375zm-1.640625 -12.6875q0 -0.515625 0.25 -0.75q0.265625 -0.25 0.65625 -0.25q0.359375 0 0.625 0.25q0.265625 0.234375 0.265625 0.75q0 0.515625 -0.265625 0.765625q-0.265625 0.25 -0.625 0.25q-0.390625 0 -0.65625 -0.25q-0.25 -0.25 -0.25 -0.765625zm8.843727 12.875q-2.1718903 0 -3.3593826 -1.328125q-1.1875 -1.34375 -1.1875 -3.78125q0 -2.515625 1.203125 -3.875q1.2187424 -1.375 3.4375076 -1.375q0.71875 0 1.4375 0.15625q0.734375 0.15625 1.140625 0.375l-0.46875 1.28125q-0.5 -0.203125 -1.09375 -0.328125q-0.59375 -0.140625 -1.046875 -0.140625q-3.0468826 0 -3.0468826 3.875q0 1.84375 0.734375 2.828125q0.7499924 0.984375 2.2187576 0.984375q1.25 0 2.546875 -0.53125l0 1.328125q-1.0 0.53125 -2.515625 0.53125zm11.03801 -0.1875l-0.3125 -1.421875l-0.0625 0q-0.75 0.9375 -1.5 1.28125q-0.734375 0.328125 -1.84375 0.328125q-1.484375 0 -2.328125 -0.765625q-0.84375 -0.765625 -0.84375 -2.1875q0 -3.015625 4.828125 -3.171875l1.703125 -0.046875l0 -0.625q0 -1.171875 -0.515625 -1.734375q-0.5 -0.5625 -1.609375 -0.5625q-1.25 0 -2.828125 0.765625l-0.453125 -1.15625q0.734375 -0.390625 1.609375 -0.609375q0.875 -0.234375 1.765625 -0.234375q1.78125 0 2.640625 0.796875q0.859375 0.78125 0.859375 2.53125l0 6.8125l-1.109375 0zm-3.421875 -1.0625q1.40625 0 2.203125 -0.765625q0.8125 -0.78125 0.8125 -2.1875l0 -0.890625l-1.5 0.0625q-1.8125 0.0625 -2.609375 0.5625q-0.796875 0.484375 -0.796875 1.546875q0 0.8125 0.5 1.25q0.5 0.421875 1.390625 0.421875zm10.875717 0q0.40625 0 0.765625 -0.0625q0.375 -0.0625 0.59375 -0.125l0 1.15625q-0.234375 0.125 -0.71875 0.203125q-0.484375 0.078125 -0.859375 0.078125q-2.890625 0 -2.890625 -3.0625l0 -5.9375l-1.4375 0l0 -0.71875l1.4375 -0.640625l0.625 -2.125l0.875 0l0 2.3125l2.90625 0l0 1.171875l-2.90625 0l0 5.875q0 0.90625 0.421875 1.390625q0.4375 0.484375 1.1875 0.484375zm4.8674164 1.0625l-1.5 0l0 -9.984375l1.5 0l0 9.984375zm-1.640625 -12.6875q0 -0.515625 0.25 -0.75q0.265625 -0.25 0.65625 -0.25q0.359375 0 0.625 0.25q0.265625 0.234375 0.265625 0.75q0 0.515625 -0.265625 0.765625q-0.265625 0.25 -0.625 0.25q-0.390625 0 -0.65625 -0.25q-0.25 -0.25 -0.25 -0.765625zm13.4687195 7.6875q0 2.4375 -1.234375 3.8125q-1.21875 1.375 -3.390625 1.375q-1.34375 0 -2.390625 -0.625q-1.03125 -0.640625 -1.59375 -1.8125q-0.5625 -1.171875 -0.5625 -2.75q0 -2.4375 1.21875 -3.796875q1.21875 -1.375 3.390625 -1.375q2.09375 0 3.328125 1.40625q1.234375 1.390625 1.234375 3.765625zm-7.609375 0q0 1.90625 0.765625 2.921875q0.765625 1.0 2.25 1.0q1.484375 0 2.25 -1.0q0.78125 -1.0 0.78125 -2.921875q0 -1.90625 -0.78125 -2.890625q-0.765625 -0.984375 -2.265625 -0.984375q-1.484375 0 -2.25 0.96875q-0.75 0.96875 -0.75 2.90625zm17.096573 5.0l0 -6.453125q0 -1.21875 -0.5625 -1.8125q-0.546875 -0.609375 -1.734375 -0.609375q-1.5625 0 -2.296875 0.84375q-0.734375 0.84375 -0.734375 2.796875l0 5.234375l-1.5 0l0 -9.984375l1.21875 0l0.25 1.359375l0.078125 0q0.453125 -0.734375 1.296875 -1.140625q0.84375 -0.40625 1.875 -0.40625q1.796875 0 2.703125 0.875q0.921875 0.875 0.921875 2.78125l0 6.515625l-1.515625 0z" fill-rule="nonzero"/><path fill="#000000" fill-opacity="0.0" d="m360.90027 306.84253c58.539795 0 87.80792 -38.283478 117.07959 -76.56694c29.271637 -38.283463 58.546814 -76.566925 117.09363 -76.566925" fill-rule="evenodd"/><path stroke="#000000" stroke-width="2.0" stroke-linejoin="round" stroke-linecap="butt" stroke-dasharray="16.0,6.0" d="m367.75204 306.66245l1.1904297 -0.068359375c0.87280273 -0.054748535 1.7388306 -0.11843872 2.598114 -0.19085693c3.4371948 -0.2897339 6.7671814 -0.71969604 9.997192 -1.2804871c6.4598694 -1.121582 12.519592 -2.766571 18.236328 -4.860199c11.433411 -4.187256 21.494751 -10.169037 30.64148 -17.347198c18.293488 -14.356293 32.928436 -33.498016 47.56427 -52.639755c14.635834 -19.141724 29.272522 -38.283463 47.568604 -52.639755c9.148071 -7.1781616 19.210999 -13.159943 30.645996 -17.347198c5.7175903 -2.093628 11.778137 -3.738617 18.238892 -4.860214c3.2304077 -0.56077576 6.560852 -0.99072266 9.998474 -1.2804718c0.85943604 -0.07243347 1.7255249 -0.1361084 2.5984497 -0.19087219l1.1914062 -0.068374634" fill-rule="evenodd"/><path fill="#000000" stroke="#000000" stroke-width="2.0" stroke-linecap="butt" d="m367.75208 306.66245l2.1893005 -2.307495l-6.1183167 2.4107666l6.2364807 2.086029z" fill-rule="evenodd"/><path fill="#000000" stroke="#000000" stroke-width="2.0" stroke-linecap="butt" d="m588.2217 153.88869l-2.189331 2.3074799l6.118347 -2.4107056l-6.236511 -2.08609z" fill-rule="evenodd"/><path fill="#000000" fill-opacity="0.0" d="m360.90027 306.84253c64.33728 0 96.50528 -32.283478 128.67459 -64.56694c32.16928 -32.283463 64.339874 -64.566925 128.67972 -64.566925" fill-rule="evenodd"/><path stroke="#000000" stroke-width="2.0" stroke-linejoin="round" stroke-linecap="butt" stroke-dasharray="16.0,6.0" d="m367.7533 306.7161l0.5411682 -0.019439697c0.48336792 -0.019317627 0.96487427 -0.040527344 1.444519 -0.06362915c0.9592285 -0.046173096 1.9109802 -0.09988403 2.8553772 -0.1609497c3.777649 -0.24432373 7.4374084 -0.60687256 10.987305 -1.0798035c7.0996704 -0.9458008 13.7595825 -2.3329773 20.042511 -4.09848c12.565826 -3.5310059 23.623718 -8.575287 33.67639 -14.6284485c20.105316 -12.106293 36.189636 -28.248016 52.27426 -44.389755c16.084656 -16.141724 32.169617 -32.283463 52.27594 -44.389755c10.053162 -6.0531616 21.111633 -11.097443 33.67804 -14.6284485c6.283264 -1.7655029 12.94342 -3.1526794 20.043457 -4.0984955c3.5499878 -0.4729004 7.209961 -0.8354645 10.987732 -1.079773c0.944458 -0.06109619 1.8962402 -0.11479187 2.8555908 -0.16098022c0.47961426 -0.023086548 0.9611206 -0.044311523 1.444519 -0.06361389l0.5414429 -0.019439697" fill-rule="evenodd"/><path fill="#000000" stroke="#000000" stroke-width="2.0" stroke-linecap="butt" d="m367.75327 306.7161l2.207306 -2.2902832l-6.1369934 2.3627625l6.2199707 2.1348267z" fill-rule="evenodd"/><path fill="#000000" stroke="#000000" stroke-width="2.0" stroke-linecap="butt" d="m611.4016 177.83508l-2.2073364 2.290268l6.137024 -2.3627625l-6.2199707 -2.1348114z" fill-rule="evenodd"/><path fill="#000000" fill-opacity="0.0" d="m360.16797 306.83466c70.99213 0 106.48819 -25.606323 141.98425 -51.212616c35.496094 -25.606293 70.99213 -51.212585 141.98425 -51.212585" fill-rule="evenodd"/><path stroke="#000000" stroke-width="2.0" stroke-linejoin="round" stroke-linecap="butt" stroke-dasharray="16.0,6.0" d="m367.02167 306.75266l1.3052979 -0.033691406c0.53344727 -0.015319824 1.0647278 -0.032165527 1.5939636 -0.050476074c1.0584717 -0.036621094 2.108673 -0.079193115 3.1507568 -0.12765503c4.168396 -0.19378662 8.206726 -0.48135376 12.123779 -0.85647583c7.8341064 -0.7501831 15.182892 -1.8504639 22.115723 -3.2507935c13.865662 -2.8006897 26.067413 -6.8016663 37.159943 -11.602844c22.185028 -9.602386 39.933075 -22.405518 57.68109 -35.20868c17.748047 -12.803146 35.496094 -25.606293 57.68109 -35.20865c11.092529 -4.801193 23.294312 -8.80217 37.159973 -11.6028595c6.9328003 -1.4003448 14.281616 -2.5006104 22.115723 -3.2507935c3.9170532 -0.3751068 7.9553833 -0.66267395 12.123779 -0.85647583c1.0420532 -0.048446655 2.0922852 -0.091033936 3.1507568 -0.12765503c0.52923584 -0.018310547 1.0605469 -0.03515625 1.5939331 -0.050460815l1.3053589 -0.033691406" fill-rule="evenodd"/><path fill="#000000" stroke="#000000" stroke-width="2.0" stroke-linecap="butt" d="m367.02167 306.75262l2.2220764 -2.2759094l-6.1521606 2.322937l6.2059937 2.1750793z" fill-rule="evenodd"/><path fill="#000000" stroke="#000000" stroke-width="2.0" stroke-linecap="butt" d="m637.2828 204.49146l-2.222046 2.2759094l6.1521606 -2.322937l-6.2059937 -2.175064z" fill-rule="evenodd"/><path fill="#000000" fill-opacity="0.0" d="m360.90027 306.84253c62.059265 0 93.087036 19.480316 124.11853 38.960632c31.031494 19.480316 62.06671 38.960632 124.13342 38.960632" fill-rule="evenodd"/><path stroke="#000000" stroke-width="2.0" stroke-linejoin="round" stroke-linecap="butt" stroke-dasharray="16.0,6.0" d="m367.75394 306.9243l0.27871704 0.0062561035c0.46624756 0.011657715 0.9306946 0.02444458 1.3933105 0.038360596c0.92529297 0.027893066 1.8433838 0.060302734 2.754303 0.09713745c3.6438904 0.14743042 7.174103 0.36621094 10.598236 0.6515503c6.848297 0.57073975 13.272308 1.4077759 19.332703 2.473114c12.120819 2.1306458 22.787079 5.1744385 32.483734 8.827026c19.39328 7.3051147 34.90808 17.045258 50.42383 26.78543c15.515778 9.740143 31.03244 19.480316 50.42856 26.78543c9.697998 3.6525574 20.365906 6.69635 32.488464 8.826996c6.0612793 1.0653381 12.486206 1.9024048 19.335388 2.473114c3.4246216 0.28533936 6.9553223 0.50408936 10.599609 0.6515198c0.9110718 0.036865234 1.8292847 0.0692749 2.7546387 0.09716797c0.46276855 0.013946533 0.9272461 0.026733398 1.3935547 0.038391113l0.27960205 0.0062561035" fill-rule="evenodd"/><path fill="#000000" stroke="#000000" stroke-width="2.0" stroke-linecap="butt" d="m367.75394 306.9243l2.2758484 -2.2221985l-6.2059326 2.175293l6.1522827 2.3227234z" fill-rule="evenodd"/><path fill="#000000" stroke="#000000" stroke-width="2.0" stroke-linecap="butt" d="m602.2985 384.68204l-2.2758179 2.2221985l6.2059326 -2.1753235l-6.1522827 -2.3226929z" fill-rule="evenodd"/><path fill="#000000" fill-opacity="0.0" d="m360.90027 306.84253c68.76376 0 103.14566 31.118103 137.52756 62.236206c34.381866 31.118103 68.76376 62.236237 137.52756 62.236237" fill-rule="evenodd"/><path stroke="#000000" stroke-width="2.0" stroke-linejoin="round" stroke-linecap="butt" stroke-dasharray="16.0,6.0" d="m367.7536 306.94913l1.0495911 0.033966064c0.5166626 0.01864624 1.03125 0.039093018 1.5438843 0.061340332c1.0252686 0.044525146 2.0424805 0.09628296 3.05188 0.15515137c4.037506 0.23550415 7.949127 0.58499146 11.743225 1.0408325c7.5881653 0.9116516 14.706329 2.2487488 21.42154 3.950531c13.43042 3.403534 25.249176 8.265747 35.99353 14.100403c21.488678 11.669281 38.679626 27.228333 55.870575 42.787384c17.190948 15.5590515 34.381866 31.118103 55.870575 42.787415c10.744324 5.8346252 22.56311 10.696838 35.99353 14.100372c6.71521 1.7017822 13.833374 3.0388794 21.421509 3.9505615c3.7941284 0.45581055 7.7057495 0.80526733 11.743225 1.040802c1.0093994 0.058898926 2.0266724 0.11065674 3.05188 0.15515137c0.5126343 0.022247314 1.0272827 0.04272461 1.5438843 0.061340332l1.0496216 0.033966064" fill-rule="evenodd"/><path fill="#000000" stroke="#000000" stroke-width="2.0" stroke-linecap="butt" d="m367.7536 306.94913l2.2838745 -2.2138977l-6.2137756 2.152771l6.1438293 2.3450012z" fill-rule="evenodd"/><path fill="#000000" stroke="#000000" stroke-width="2.0" stroke-linecap="butt" d="m629.10205 431.20834l-2.2838745 2.2139282l6.213745 -2.1528015l-6.143799 -2.3450012z" fill-rule="evenodd"/><path fill="#000000" fill-opacity="0.0" d="m360.90027 306.84253c76.853455 0 115.28174 43.251953 153.70691 86.50394c38.425232 43.251953 76.84735 86.50394 153.69464 86.50394" fill-rule="evenodd"/><path stroke="#000000" stroke-width="2.0" stroke-linejoin="round" stroke-linecap="butt" stroke-dasharray="16.0,6.0" d="m367.75345 306.95987l0.240448 0.008026123c2.3277893 0.08319092 4.6192017 0.20727539 6.8754883 0.37094116c4.512512 0.32733154 8.884308 0.81307983 13.124786 1.4466248c8.4809265 1.2671509 16.436523 3.1256409 23.941803 5.4909973c15.01059 4.7306824 28.21991 11.4888 40.228363 19.598541c24.016876 16.219482 43.230255 37.84546 62.44284 59.471466c19.212646 21.625977 38.42444 43.251953 62.439026 59.471436c12.007324 8.109741 25.215332 14.867889 40.224426 19.598572c7.5045776 2.3653564 15.459412 4.223816 23.939575 5.490967c4.2401123 0.63357544 8.611511 1.1192932 13.123657 1.4466553c2.2561035 0.16366577 4.5473022 0.28775024 6.874939 0.37088013l0.23986816 0.008056641" fill-rule="evenodd"/><path fill="#000000" stroke="#000000" stroke-width="2.0" stroke-linecap="butt" d="m367.75342 306.95987l2.2873535 -2.2103271l-6.2171326 2.143036l6.1401367 2.3546448z" fill-rule="evenodd"/><path fill="#000000" stroke="#000000" stroke-width="2.0" stroke-linecap="butt" d="m661.44867 479.73303l-2.2873535 2.2103271l6.217163 -2.143036l-6.1401367 -2.3546448z" fill-rule="evenodd"/><path fill="#000000" fill-opacity="0.0" d="m190.57742 330.063l73.700806 0.94488525" fill-rule="evenodd"/><path stroke="#000000" stroke-width="2.0" stroke-linejoin="round" stroke-linecap="butt" stroke-dasharray="16.0,6.0" d="m197.43105 330.15085l54.84816 0.70318604" fill-rule="evenodd"/><path fill="#000000" stroke="#000000" stroke-width="2.0" stroke-linecap="butt" d="m197.43103 330.15085l2.2778168 -2.2201538l-6.207855 2.1697693l6.1501923 2.3282166z" fill-rule="evenodd"/><path fill="#000000" stroke="#000000" stroke-width="2.0" stroke-linecap="butt" d="m252.23685 334.15723l9.117798 -3.1868286l-9.033096 -3.4195557z" fill-rule="evenodd"/><path fill="#000000" fill-opacity="0.0" d="m204.94489 283.14697l48.53543 0l0 28.75592l-48.53543 0z" fill-rule="evenodd"/><path fill="#000000" d="m223.28864 306.5201q0 1.765625 -1.28125 2.75q-1.265625 0.984375 -3.453125 0.984375q-2.375 0 -3.640625 -0.609375l0 -1.5q0.8125 0.34375 1.78125 0.546875q0.96875 0.203125 1.921875 0.203125q1.546875 0 2.328125 -0.578125q0.78125 -0.59375 0.78125 -1.640625q0 -0.703125 -0.28125 -1.140625q-0.28125 -0.4375 -0.9375 -0.8125q-0.640625 -0.375 -1.96875 -0.84375q-1.859375 -0.671875 -2.65625 -1.578125q-0.796875 -0.921875 -0.796875 -2.375q0 -1.546875 1.15625 -2.453125q1.15625 -0.921875 3.0625 -0.921875q1.984375 0 3.65625 0.734375l-0.484375 1.34375q-1.65625 -0.6875 -3.21875 -0.6875q-1.21875 0 -1.921875 0.53125q-0.6875 0.53125 -0.6875 1.46875q0 0.6875 0.25 1.140625q0.265625 0.4375 0.859375 0.8125q0.609375 0.359375 1.859375 0.796875q2.09375 0.75 2.875 1.609375q0.796875 0.859375 0.796875 2.21875zm10.0672 -6.640625q0 1.28125 -0.71875 2.09375q-0.71875 0.8125 -2.03125 1.078125l0 0.078125q1.609375 0.203125 2.375 1.03125q0.78125 0.8125 0.78125 2.140625q0 1.890625 -1.328125 2.921875q-1.3125 1.03125 -3.75 1.03125q-1.0625 0 -1.9375 -0.171875q-0.875 -0.15625 -1.703125 -0.546875l0 -1.453125q0.859375 0.4375 1.84375 0.65625q0.984375 0.21875 1.859375 0.21875q3.4375 0 3.4375 -2.703125q0 -2.421875 -3.796875 -2.421875l-1.3125 0l0 -1.296875l1.328125 0q1.5625 0 2.46875 -0.6875q0.90625 -0.6875 0.90625 -1.90625q0 -0.984375 -0.671875 -1.53125q-0.65625 -0.5625 -1.8125 -0.5625q-0.875 0 -1.65625 0.25q-0.765625 0.234375 -1.765625 0.859375l-0.765625 -1.015625q0.828125 -0.640625 1.890625 -1.015625q1.078125 -0.375 2.265625 -0.375q1.9375 0 3.015625 0.890625q1.078125 0.890625 1.078125 2.4375z" fill-rule="nonzero"/><path fill="#000000" fill-opacity="0.0" d="m190.57742 15.530184l510.55118 0l0 42.23622l-510.55118 0z" fill-rule="evenodd"/><path fill="#ffffff" d="m217.35692 27.148294l456.9922 0l0 19.199999l-456.9922 0l0 -19.199999z" fill-rule="nonzero"/><path fill="#000000" fill-opacity="0.0" d="m217.35692 25.406733l456.9922 0l0 21.78906l-456.9922 0l0 -21.78906z" fill-rule="nonzero"/><path fill="#24292e" d="m221.2163 36.14892l0.78125 0q1.15625 0 1.703125 -0.375q0.546875 -0.390625 0.546875 -1.203125q0 -0.8125 -0.5625 -1.15625q-0.5625 -0.34375 -1.734375 -0.34375l-0.734375 0l0 3.078125zm0 1.96875l0 4.390625l-2.421875 0l0 -11.421873l3.328125 0q2.328125 0 3.4375 0.84375q1.125 0.8437481 1.125 2.578123q0 1.0 -0.5625 1.796875q-0.546875 0.78125 -1.5625 1.21875q2.578125 3.859375 3.359375 4.984375l-2.6875 0l-2.71875 -4.390625l-1.296875 0zm11.578125 -2.8125q-0.765625 0 -1.203125 0.484375q-0.421875 0.46875 -0.484375 1.359375l3.34375 0q-0.015625 -0.890625 -0.46875 -1.359375q-0.4375 -0.484375 -1.1875 -0.484375zm0.328125 7.359375q-2.109375 0 -3.296875 -1.15625q-1.1875 -1.171875 -1.1875 -3.3125q0 -2.1875 1.09375 -3.390625q1.109375 -1.203125 3.046875 -1.203125q1.84375 0 2.875 1.0625q1.03125 1.046875 1.03125 2.90625l0 1.15625l-5.625 0q0.03125 1.015625 0.59375 1.59375q0.5625 0.5625 1.578125 0.5625q0.796875 0 1.5 -0.15625q0.703125 -0.171875 1.46875 -0.53125l0 1.84375q-0.625 0.3125 -1.34375 0.46875q-0.703125 0.15625 -1.734375 0.15625zm8.265625 0q-1.53125 0 -2.421875 -1.1875q-0.875 -1.203125 -0.875 -3.328125q0 -2.140625 0.890625 -3.34375q0.90625 -1.203125 2.46875 -1.203125q1.65625 0 2.515625 1.28125l0.078125 0q-0.171875 -0.96875 -0.171875 -1.734375l0 -2.796873l2.390625 0l0 12.156248l-1.828125 0l-0.46875 -1.140625l-0.09375 0q-0.8125 1.296875 -2.484375 1.296875zm0.84375 -1.90625q0.90625 0 1.328125 -0.53125q0.4375 -0.53125 0.46875 -1.796875l0 -0.265625q0 -1.40625 -0.4375 -2.015625q-0.421875 -0.609375 -1.40625 -0.609375q-0.796875 0 -1.234375 0.6875q-0.4375 0.671875 -0.4375 1.953125q0 1.296875 0.4375 1.9375q0.453125 0.640625 1.28125 0.640625zm12.703125 1.75l-0.3125 -1.125l-0.125 0q-0.390625 0.609375 -1.09375 0.953125q-0.703125 0.328125 -1.59375 0.328125q-1.546875 0 -2.328125 -0.828125q-0.78125 -0.828125 -0.78125 -2.375l0 -5.6875l2.390625 0l0 5.09375q0 0.953125 0.328125 1.421875q0.34375 0.46875 1.078125 0.46875q1.0 0 1.4375 -0.65625q0.453125 -0.671875 0.453125 -2.21875l0 -4.109375l2.3750153 0l0 8.734375l-1.8281403 0zm12.39064 0l-2.375 0l0 -5.109375q0 -0.9375 -0.34375 -1.40625q-0.328125 -0.484375 -1.0625 -0.484375q-1.0 0 -1.453125 0.671875q-0.4375 0.671875 -0.4375 2.21875l0 4.109375l-2.390625 0l0 -8.734375l1.828125 0l0.3125 1.109375l0.140625 0q0.390625 -0.625 1.09375 -0.953125q0.703125 -0.328125 1.59375 -0.328125q1.515625 0 2.296875 0.828125q0.796875 0.828125 0.796875 2.375l0 5.703125zm5.21875 0.15625q-1.53125 0 -2.421875 -1.1875q-0.875 -1.203125 -0.875 -3.328125q0 -2.140625 0.890625 -3.34375q0.90625 -1.203125 2.46875 -1.203125q1.65625 0 2.515625 1.28125l0.078125 0q-0.171875 -0.96875 -0.171875 -1.734375l0 -2.796873l2.390625 0l0 12.156248l-1.828125 0l-0.46875 -1.140625l-0.09375 0q-0.8125 1.296875 -2.484375 1.296875zm0.84375 -1.90625q0.90625 0 1.328125 -0.53125q0.4375 -0.53125 0.46875 -1.796875l0 -0.265625q0 -1.40625 -0.4375 -2.015625q-0.421875 -0.609375 -1.40625 -0.609375q-0.796875 0 -1.234375 0.6875q-0.4375 0.671875 -0.4375 1.953125q0 1.296875 0.4375 1.9375q0.453125 0.640625 1.28125 0.640625zm12.0625 1.75l-0.453125 -1.1875l-0.0625 0q-0.609375 0.75 -1.25 1.046875q-0.625 0.296875 -1.65625 0.296875q-1.25 0 -1.984375 -0.71875q-0.71875 -0.71875 -0.71875 -2.046875q0 -1.390625 0.96875 -2.046875q0.984375 -0.671875 2.9375 -0.734375l1.515625 -0.046875l0 -0.390625q0 -1.328125 -1.359375 -1.328125q-1.046875 0 -2.453125 0.640625l-0.796875 -1.609375q1.515625 -0.796875 3.34375 -0.796875q1.765625 0 2.703125 0.765625q0.9375 0.765625 0.9375 2.328125l0 5.828125l-1.671875 0zm-0.703125 -4.046875l-0.921875 0.03125q-1.03125 0.03125 -1.546875 0.375q-0.5 0.34375 -0.5 1.046875q0 1.0 1.15625 1.0q0.828125 0 1.3125 -0.46875q0.5 -0.484375 0.5 -1.265625l0 -0.71875zm12.8828125 4.046875l-2.375 0l0 -5.109375q0 -0.9375 -0.34375 -1.40625q-0.328125 -0.484375 -1.0625 -0.484375q-1.0 0 -1.453125 0.671875q-0.4375 0.671875 -0.4375 2.21875l0 4.109375l-2.390625 0l0 -8.734375l1.828125 0l0.3125 1.109375l0.140625 0q0.390625 -0.625 1.09375 -0.953125q0.703125 -0.328125 1.59375 -0.328125q1.515625 0 2.296875 0.828125q0.796875 0.828125 0.796875 2.375l0 5.703125zm6.140625 -1.75q0.625 0 1.5 -0.265625l0 1.765625q-0.890625 0.40625 -2.1875 0.40625q-1.4375 0 -2.09375 -0.71875q-0.640625 -0.734375 -0.640625 -2.171875l0 -4.21875l-1.140625 0l0 -1.0l1.3125 -0.796875l0.6875 -1.8437481l1.515625 0l0 1.8593731l2.453125 0l0 1.78125l-2.453125 0l0 4.21875q0 0.5 0.28125 0.75q0.296875 0.234375 0.765625 0.234375zm14.6015625 1.75l-0.828125 -2.71875l-4.171875 0l-0.828125 2.71875l-2.609375 0l4.03125 -11.468748l2.96875 0l4.046875 11.468748l-2.609375 0zm-1.40625 -4.75q-1.15625 -3.703125 -1.296875 -4.1875q-0.140625 -0.484375 -0.203125 -0.765625q-0.265625 1.0 -1.484375 4.953125l2.984375 0zm10.1328125 -4.15625q0.484375 0 0.8125 0.078125l-0.1875 2.234375q-0.28125 -0.078125 -0.703125 -0.078125q-1.140625 0 -1.78125 0.59375q-0.625 0.578125 -0.625 1.625l0 4.453125l-2.390625 0l0 -8.734375l1.8125 0l0.34375 1.46875l0.125 0q0.40625 -0.734375 1.09375 -1.1875q0.6875 -0.453125 1.5 -0.453125zm7.265625 0q0.484375 0 0.8125 0.078125l-0.1875 2.234375q-0.28125 -0.078125 -0.703125 -0.078125q-1.140625 0 -1.78125 0.59375q-0.625 0.578125 -0.625 1.625l0 4.453125l-2.390625 0l0 -8.734375l1.8125 0l0.34375 1.46875l0.125 0q0.40625 -0.734375 1.09375 -1.1875q0.6875 -0.453125 1.5 -0.453125zm7.9375 8.90625l-0.453125 -1.1875l-0.0625 0q-0.609375 0.75 -1.25 1.046875q-0.625 0.296875 -1.65625 0.296875q-1.25 0 -1.984375 -0.71875q-0.71875 -0.71875 -0.71875 -2.046875q0 -1.390625 0.96875 -2.046875q0.984375 -0.671875 2.9375 -0.734375l1.515625 -0.046875l0 -0.390625q0 -1.328125 -1.359375 -1.328125q-1.046875 0 -2.453125 0.640625l-0.796875 -1.609375q1.515625 -0.796875 3.34375 -0.796875q1.765625 0 2.703125 0.765625q0.9375 0.765625 0.9375 2.328125l0 5.828125l-1.671875 0zm-0.703125 -4.046875l-0.921875 0.03125q-1.03125 0.03125 -1.546875 0.375q-0.5 0.34375 -0.5 1.046875q0 1.0 1.15625 1.0q0.828125 0 1.3125 -0.46875q0.5 -0.484375 0.5 -1.265625l0 -0.71875zm3.5703125 -4.6875l2.609375 0l1.65625 4.90625q0.203125 0.640625 0.28125 1.515625l0.046875 0q0.09375 -0.796875 0.34375 -1.515625l1.609375 -4.90625l2.5625 0l-3.703125 9.859375q-0.5 1.359375 -1.453125 2.03125q-0.9375 0.6875 -2.1875 0.6875q-0.625 0 -1.21875 -0.125l0 -1.890625q0.4375 0.09375 0.9375 0.09375q0.640625 0 1.109375 -0.390625q0.46875 -0.375 0.734375 -1.15625l0.140625 -0.4375l-3.46875 -8.671875zm16.414062 4.34375q0 1.296875 0.421875 1.96875q0.421875 0.65625 1.390625 0.65625q0.953125 0 1.359375 -0.65625q0.421875 -0.65625 0.421875 -1.96875q0 -1.296875 -0.421875 -1.9375q-0.421875 -0.65625 -1.375 -0.65625q-0.953125 0 -1.375 0.65625q-0.421875 0.640625 -0.421875 1.9375zm6.03125 0q0 2.140625 -1.125 3.34375q-1.125 1.203125 -3.125 1.203125q-1.265625 0 -2.234375 -0.546875q-0.953125 -0.5625 -1.46875 -1.59375q-0.515625 -1.03125 -0.515625 -2.40625q0 -2.140625 1.109375 -3.328125q1.125 -1.1875 3.15625 -1.1875q1.25 0 2.203125 0.546875q0.96875 0.546875 1.484375 1.578125q0.515625 1.015625 0.515625 2.390625zm6.796875 -2.5625l-2.0625 0l0 6.953125l-2.375 0l0 -6.953125l-1.3125 0l0 -1.140625l1.3125 -0.640625l0 -0.640625q0 -1.4999981 0.734375 -2.187498q0.734375 -0.6875 2.34375 -0.6875q1.234375 0 2.203125 0.375l-0.609375 1.7499981q-0.71875 -0.234375 -1.328125 -0.234375q-0.515625 0 -0.75 0.3125q-0.21875 0.296875 -0.21875 0.765625l0 0.546875l2.0625 0l0 1.78125zm15.1953125 1.125q0 2.828125 -1.609375 4.328125q-1.609375 1.5 -4.640625 1.5l-3.234375 0l0 -11.421873l3.59375 0q2.796875 0 4.34375 1.4843731q1.546875 1.46875 1.546875 4.109375zm-2.515625 0.0625q0 -3.671875 -3.25 -3.671875l-1.296875 0l0 7.4375l1.046875 0q3.5 0 3.5 -3.765625zm4.59375 -5.234373q0 -1.15625 1.296875 -1.15625q1.296875 0 1.296875 1.15625q0 0.5624981 -0.328125 0.8749981q-0.328125 0.296875 -0.96875 0.296875q-1.296875 0 -1.296875 -1.1718731zm2.484375 10.999998l-2.390625 0l0 -8.734375l2.390625 0l0 8.734375zm8.5859375 -2.59375q0 1.34375 -0.9375 2.046875q-0.921875 0.703125 -2.78125 0.703125q-0.953125 0 -1.625 -0.140625q-0.671875 -0.125 -1.265625 -0.375l0 -1.96875q0.671875 0.3125 1.5 0.53125q0.828125 0.203125 1.46875 0.203125q1.296875 0 1.296875 -0.75q0 -0.28125 -0.171875 -0.453125q-0.171875 -0.171875 -0.59375 -0.390625q-0.421875 -0.234375 -1.125 -0.53125q-1.015625 -0.421875 -1.484375 -0.78125q-0.46875 -0.359375 -0.6875 -0.8125q-0.21875 -0.46875 -0.21875 -1.15625q0 -1.15625 0.90625 -1.796875q0.90625 -0.640625 2.5625 -0.640625q1.578125 0 3.0625 0.6875l-0.71875 1.71875q-0.65625 -0.28125 -1.234375 -0.453125q-0.5625 -0.1875 -1.15625 -0.1875q-1.046875 0 -1.046875 0.578125q0 0.3125 0.328125 0.546875q0.34375 0.234375 1.5 0.703125q1.015625 0.40625 1.484375 0.765625q0.484375 0.359375 0.703125 0.828125q0.234375 0.46875 0.234375 1.125zm5.546875 0.84375q0.625 0 1.5 -0.265625l0 1.765625q-0.890625 0.40625 -2.1875 0.40625q-1.4375 0 -2.09375 -0.71875q-0.640625 -0.734375 -0.640625 -2.171875l0 -4.21875l-1.140625 0l0 -1.0l1.3125 -0.796875l0.6875 -1.8437481l1.515625 0l0 1.8593731l2.453125 0l0 1.78125l-2.453125 0l0 4.21875q0 0.5 0.28125 0.75q0.296875 0.234375 0.765625 0.234375zm8.1328125 -7.15625q0.484375 0 0.8125 0.078125l-0.1875 2.234375q-0.28125 -0.078125 -0.703125 -0.078125q-1.140625 0 -1.78125 0.59375q-0.625 0.578125 -0.625 1.625l0 4.453125l-2.390625 0l0 -8.734375l1.8125 0l0.34375 1.46875l0.125 0q0.40625 -0.734375 1.09375 -1.1875q0.6875 -0.453125 1.5 -0.453125zm2.296875 -2.093748q0 -1.15625 1.296875 -1.15625q1.296875 0 1.296875 1.15625q0 0.5624981 -0.328125 0.8749981q-0.328125 0.296875 -0.96875 0.296875q-1.296875 0 -1.296875 -1.1718731zm2.484375 10.999998l-2.390625 0l0 -8.734375l2.390625 0l0 8.734375zm7.3515625 -8.90625q1.546875 0 2.421875 1.21875q0.875 1.203125 0.875 3.296875q0 2.171875 -0.90625 3.359375q-0.890625 1.1875 -2.453125 1.1875q-1.53125 0 -2.40625 -1.125l-0.171875 0l-0.390625 0.96875l-1.828125 0l0 -12.156248l2.390625 0l0 2.828123q0 0.53125 -0.09375 1.71875l0.09375 0q0.828125 -1.296875 2.46875 -1.296875zm-0.765625 1.90625q-0.875 0 -1.28125 0.546875q-0.40625 0.546875 -0.421875 1.796875l0 0.25q0 1.40625 0.40625 2.015625q0.421875 0.609375 1.328125 0.609375q0.734375 0 1.171875 -0.671875q0.4375 -0.671875 0.4375 -1.96875q0 -1.28125 -0.4375 -1.921875q-0.4375 -0.65625 -1.203125 -0.65625zm12.21875 7.0l-0.3125 -1.125l-0.125 0q-0.390625 0.609375 -1.09375 0.953125q-0.703125 0.328125 -1.59375 0.328125q-1.546875 0 -2.328125 -0.828125q-0.78125 -0.828125 -0.78125 -2.375l0 -5.6875l2.390625 0l0 5.09375q0 0.953125 0.328125 1.421875q0.34375 0.46875 1.078125 0.46875q1.0 0 1.4375 -0.65625q0.453125 -0.671875 0.453125 -2.21875l0 -4.109375l2.375 0l0 8.734375l-1.828125 0zm8.0155945 -1.75q0.625 0 1.5 -0.265625l0 1.765625q-0.890625 0.40625 -2.1875 0.40625q-1.4374695 0 -2.0937195 -0.71875q-0.640625 -0.734375 -0.640625 -2.171875l0 -4.21875l-1.140625 0l0 -1.0l1.3125 -0.796875l0.6875 -1.8437481l1.5155945 0l0 1.8593731l2.453125 0l0 1.78125l-2.453125 0l0 4.21875q0 0.5 0.28125 0.75q0.296875 0.234375 0.765625 0.234375zm6.8828125 -5.453125q-0.765625 0 -1.203125 0.484375q-0.421875 0.46875 -0.484375 1.359375l3.34375 0q-0.015625 -0.890625 -0.46875 -1.359375q-0.4375 -0.484375 -1.1875 -0.484375zm0.328125 7.359375q-2.109375 0 -3.296875 -1.15625q-1.1875 -1.171875 -1.1875 -3.3125q0 -2.1875 1.09375 -3.390625q1.109375 -1.203125 3.046875 -1.203125q1.84375 0 2.875 1.0625q1.03125 1.046875 1.03125 2.90625l0 1.15625l-5.625 0q0.03125 1.015625 0.59375 1.59375q0.5625 0.5625 1.578125 0.5625q0.796875 0 1.5 -0.15625q0.703125 -0.171875 1.46875 -0.53125l0 1.84375q-0.625 0.3125 -1.34375 0.46875q-0.703125 0.15625 -1.734375 0.15625zm8.265625 0q-1.53125 0 -2.421875 -1.1875q-0.875 -1.203125 -0.875 -3.328125q0 -2.140625 0.890625 -3.34375q0.90625 -1.203125 2.46875 -1.203125q1.65625 0 2.515625 1.28125l0.078125 0q-0.171875 -0.96875 -0.171875 -1.734375l0 -2.796873l2.390625 0l0 12.156248l-1.828125 0l-0.46875 -1.140625l-0.09375 0q-0.8125 1.296875 -2.484375 1.296875zm0.84375 -1.90625q0.90625 0 1.328125 -0.53125q0.4375 -0.53125 0.46875 -1.796875l0 -0.265625q0 -1.40625 -0.4375 -2.015625q-0.421875 -0.609375 -1.40625 -0.609375q-0.796875 0 -1.234375 0.6875q-0.4375 0.671875 -0.4375 1.953125q0 1.296875 0.4375 1.9375q0.453125 0.640625 1.28125 0.640625zm10.859375 1.75l0 -11.421873l2.421875 0l0 11.421873l-2.421875 0zm13.171875 0l-2.375 0l0 -5.109375q0 -0.9375 -0.34375 -1.40625q-0.328125 -0.484375 -1.0625 -0.484375q-1.0 0 -1.453125 0.671875q-0.4375 0.671875 -0.4375 2.21875l0 4.109375l-2.390625 0l0 -8.734375l1.828125 0l0.3125 1.109375l0.140625 0q0.390625 -0.625 1.09375 -0.953125q0.703125 -0.328125 1.59375 -0.328125q1.515625 0 2.296875 0.828125q0.796875 0.828125 0.796875 2.375l0 5.703125zm5.21875 0.15625q-1.53125 0 -2.421875 -1.1875q-0.875 -1.203125 -0.875 -3.328125q0 -2.140625 0.890625 -3.34375q0.90625 -1.203125 2.46875 -1.203125q1.65625 0 2.515625 1.28125l0.078125 0q-0.171875 -0.96875 -0.171875 -1.734375l0 -2.796873l2.390625 0l0 12.156248l-1.828125 0l-0.46875 -1.140625l-0.09375 0q-0.8125 1.296875 -2.484375 1.296875zm0.84375 -1.90625q0.90625 0 1.328125 -0.53125q0.4375 -0.53125 0.46875 -1.796875l0 -0.265625q0 -1.40625 -0.4375 -2.015625q-0.421875 -0.609375 -1.40625 -0.609375q-0.796875 0 -1.234375 0.6875q-0.4375 0.671875 -0.4375 1.953125q0 1.296875 0.4375 1.9375q0.453125 0.640625 1.28125 0.640625zm10.140625 -5.453125q-0.765625 0 -1.203125 0.484375q-0.421875 0.46875 -0.484375 1.359375l3.34375 0q-0.015625 -0.890625 -0.46875 -1.359375q-0.4375 -0.484375 -1.1875 -0.484375zm0.328125 7.359375q-2.109375 0 -3.296875 -1.15625q-1.1875 -1.171875 -1.1875 -3.3125q0 -2.1875 1.09375 -3.390625q1.109375 -1.203125 3.046875 -1.203125q1.84375 0 2.875 1.0625q1.03125 1.046875 1.03125 2.90625l0 1.15625l-5.625 0q0.03125 1.015625 0.59375 1.59375q0.5625 0.5625 1.578125 0.5625q0.796875 0 1.5 -0.15625q0.703125 -0.171875 1.46875 -0.53125l0 1.84375q-0.625 0.3125 -1.34375 0.46875q-0.703125 0.15625 -1.734375 0.15625zm10.2969055 0q-1.53125 0 -2.40625 -1.125l-0.125 0q0.125 1.109375 0.125 1.28125l0 3.53125l-2.3906555 0l0 -12.578125l1.9375305 0l0.34375 1.125l0.109375 0q0.828125 -1.296875 2.46875 -1.296875q1.546875 0 2.421875 1.203125q0.875 1.1875 0.875 3.3125q0 1.40625 -0.40625 2.4375q-0.40625 1.03125 -1.171875 1.578125q-0.75 0.53125 -1.78125 0.53125zm-0.703125 -7.15625q-0.875 0 -1.28125 0.546875q-0.40625 0.546875 -0.421875 1.796875l0 0.25q0 1.40625 0.40625 2.015625q0.421875 0.609375 1.328125 0.609375q1.609375 0 1.609375 -2.640625q0 -1.28125 -0.40625 -1.921875q-0.390625 -0.65625 -1.234375 -0.65625zm9.65625 -0.203125q-0.765625 0 -1.203125 0.484375q-0.421875 0.46875 -0.484375 1.359375l3.34375 0q-0.015625 -0.890625 -0.46875 -1.359375q-0.4375 -0.484375 -1.1875 -0.484375zm0.328125 7.359375q-2.109375 0 -3.296875 -1.15625q-1.1875 -1.171875 -1.1875 -3.3125q0 -2.1875 1.09375 -3.390625q1.109375 -1.203125 3.046875 -1.203125q1.84375 0 2.875 1.0625q1.03125 1.046875 1.03125 2.90625l0 1.15625l-5.625 0q0.03125 1.015625 0.59375 1.59375q0.5625 0.5625 1.578125 0.5625q0.796875 0 1.5 -0.15625q0.703125 -0.171875 1.46875 -0.53125l0 1.84375q-0.625 0.3125 -1.34375 0.46875q-0.703125 0.15625 -1.734375 0.15625zm13.5625 -0.15625l-2.375 0l0 -5.109375q0 -0.9375 -0.34375 -1.40625q-0.328125 -0.484375 -1.0625 -0.484375q-1.0 0 -1.453125 0.671875q-0.4375 0.671875 -0.4375 2.21875l0 4.109375l-2.390625 0l0 -8.734375l1.828125 0l0.3125 1.109375l0.140625 0q0.390625 -0.625 1.09375 -0.953125q0.703125 -0.328125 1.59375 -0.328125q1.515625 0 2.296875 0.828125q0.796875 0.828125 0.796875 2.375l0 5.703125zm5.21875 0.15625q-1.53125 0 -2.421875 -1.1875q-0.875 -1.203125 -0.875 -3.328125q0 -2.140625 0.890625 -3.34375q0.90625 -1.203125 2.46875 -1.203125q1.65625 0 2.515625 1.28125l0.078125 0q-0.171875 -0.96875 -0.171875 -1.734375l0 -2.796873l2.390625 0l0 12.156248l-1.828125 0l-0.46875 -1.140625l-0.09375 0q-0.8125 1.296875 -2.484375 1.296875zm0.84375 -1.90625q0.90625 0 1.328125 -0.53125q0.4375 -0.53125 0.46875 -1.796875l0 -0.265625q0 -1.40625 -0.4375 -2.015625q-0.421875 -0.609375 -1.40625 -0.609375q-0.796875 0 -1.234375 0.6875q-0.4375 0.671875 -0.4375 1.953125q0 1.296875 0.4375 1.9375q0.453125 0.640625 1.28125 0.640625zm10.140625 -5.453125q-0.765625 0 -1.203125 0.484375q-0.421875 0.46875 -0.484375 1.359375l3.34375 0q-0.015625 -0.890625 -0.46875 -1.359375q-0.4375 -0.484375 -1.1875 -0.484375zm0.328125 7.359375q-2.109375 0 -3.296875 -1.15625q-1.1875 -1.171875 -1.1875 -3.3125q0 -2.1875 1.09375 -3.390625q1.109375 -1.203125 3.046875 -1.203125q1.84375 0 2.875 1.0625q1.03125 1.046875 1.03125 2.90625l0 1.15625l-5.625 0q0.03125 1.015625 0.59375 1.59375q0.5625 0.5625 1.578125 0.5625q0.796875 0 1.5 -0.15625q0.703125 -0.171875 1.46875 -0.53125l0 1.84375q-0.625 0.3125 -1.34375 0.46875q-0.703125 0.15625 -1.734375 0.15625zm13.5625 -0.15625l-2.375 0l0 -5.109375q0 -0.9375 -0.34375 -1.40625q-0.328125 -0.484375 -1.0625 -0.484375q-1.0 0 -1.453125 0.671875q-0.4375 0.671875 -0.4375 2.21875l0 4.109375l-2.390625 0l0 -8.734375l1.828125 0l0.3125 1.109375l0.140625 0q0.390625 -0.625 1.09375 -0.953125q0.703125 -0.328125 1.59375 -0.328125q1.515625 0 2.296875 0.828125q0.796875 0.828125 0.796875 2.375l0 5.703125zm6.140625 -1.75q0.625 0 1.5 -0.265625l0 1.765625q-0.890625 0.40625 -2.1875 0.40625q-1.4375 0 -2.09375 -0.71875q-0.640625 -0.734375 -0.640625 -2.171875l0 -4.21875l-1.140625 0l0 -1.0l1.3125 -0.796875l0.6875 -1.8437481l1.515625 0l0 1.8593731l2.453125 0l0 1.78125l-2.453125 0l0 4.21875q0 0.5 0.28125 0.75q0.296875 0.234375 0.765625 0.234375zm17.976562 -3.984375q0 2.84375 -1.40625 4.375q-1.40625 1.515625 -4.03125 1.515625q-2.625 0 -4.03125 -1.515625q-1.40625 -1.53125 -1.40625 -4.390625q0 -2.84375 1.40625 -4.34375q1.40625 -1.5156231 4.046875 -1.5156231q2.625 0 4.015625 1.5156231q1.40625 1.515625 1.40625 4.359375zm-8.34375 0q0 1.921875 0.71875 2.890625q0.734375 0.96875 2.1875 0.96875q2.890625 0 2.890625 -3.859375q0 -3.859375 -2.875 -3.859375q-1.453125 0 -2.1875 0.984375q-0.734375 0.96875 -0.734375 2.875zm15.375 -3.171875q1.546875 0 2.421875 1.21875q0.875 1.203125 0.875 3.296875q0 2.171875 -0.90625 3.359375q-0.890625 1.1875 -2.453125 1.1875q-1.53125 0 -2.40625 -1.125l-0.171875 0l-0.390625 0.96875l-1.828125 0l0 -12.156248l2.390625 0l0 2.828123q0 0.53125 -0.09375 1.71875l0.09375 0q0.828125 -1.296875 2.46875 -1.296875zm-0.765625 1.90625q-0.875 0 -1.28125 0.546875q-0.40625 0.546875 -0.421875 1.796875l0 0.25q0 1.40625 0.40625 2.015625q0.421875 0.609375 1.328125 0.609375q0.734375 0 1.171875 -0.671875q0.4375 -0.671875 0.4375 -1.96875q0 -1.28125 -0.4375 -1.921875q-0.4375 -0.65625 -1.203125 -0.65625zm5.328125 10.84375q-0.921875 0 -1.578125 -0.1875l0 -1.875q0.546875 0.140625 1.125 0.140625q0.609375 0 0.875 -0.34375q0.28125 -0.328125 0.28125 -0.984375l0 -9.328125l2.390625 0l0 9.6875q0 1.390625 -0.8125 2.140625q-0.796875 0.75 -2.28125 0.75zm0.609375 -14.843748q0 -1.15625 1.296875 -1.15625q1.296875 0 1.296875 1.15625q0 0.5624981 -0.328125 0.8749981q-0.328125 0.296875 -0.96875 0.296875q-1.296875 0 -1.296875 -1.1718731zm8.6015625 3.796873q-0.765625 0 -1.203125 0.484375q-0.421875 0.46875 -0.484375 1.359375l3.34375 0q-0.015625 -0.890625 -0.46875 -1.359375q-0.4375 -0.484375 -1.1875 -0.484375zm0.328125 7.359375q-2.109375 0 -3.296875 -1.15625q-1.1875 -1.171875 -1.1875 -3.3125q0 -2.1875 1.09375 -3.390625q1.109375 -1.203125 3.046875 -1.203125q1.84375 0 2.875 1.0625q1.03125 1.046875 1.03125 2.90625l0 1.15625l-5.625 0q0.03125 1.015625 0.59375 1.59375q0.5625 0.5625 1.578125 0.5625q0.796875 0 1.5 -0.15625q0.703125 -0.171875 1.46875 -0.53125l0 1.84375q-0.625 0.3125 -1.34375 0.46875q-0.703125 0.15625 -1.734375 0.15625zm9.046875 0q-4.078125 0 -4.078125 -4.484375q0 -2.21875 1.109375 -3.390625q1.109375 -1.1875 3.1875 -1.1875q1.515625 0 2.71875 0.59375l-0.703125 1.84375q-0.5625 -0.21875 -1.046875 -0.359375q-0.484375 -0.15625 -0.96875 -0.15625q-1.859375 0 -1.859375 2.640625q0 2.5625 1.859375 2.5625q0.6875 0 1.265625 -0.171875q0.59375 -0.1875 1.171875 -0.578125l0 2.03125q-0.578125 0.375 -1.171875 0.515625q-0.578125 0.140625 -1.484375 0.140625zm8.3671875 -1.90625q0.625 0 1.5 -0.265625l0 1.765625q-0.890625 0.40625 -2.1875 0.40625q-1.4375 0 -2.09375 -0.71875q-0.640625 -0.734375 -0.640625 -2.171875l0 -4.21875l-1.140625 0l0 -1.0l1.3125 -0.796875l0.6875 -1.8437481l1.515625 0l0 1.8593731l2.453125 0l0 1.78125l-2.453125 0l0 4.21875q0 0.5 0.28125 0.75q0.296875 0.234375 0.765625 0.234375zm9.3515625 -0.84375q0 1.34375 -0.9375 2.046875q-0.921875 0.703125 -2.78125 0.703125q-0.953125 0 -1.625 -0.140625q-0.671875 -0.125 -1.265625 -0.375l0 -1.96875q0.671875 0.3125 1.5 0.53125q0.828125 0.203125 1.46875 0.203125q1.296875 0 1.296875 -0.75q0 -0.28125 -0.171875 -0.453125q-0.171875 -0.171875 -0.59375 -0.390625q-0.421875 -0.234375 -1.125 -0.53125q-1.015625 -0.421875 -1.484375 -0.78125q-0.46875 -0.359375 -0.6875 -0.8125q-0.21875 -0.46875 -0.21875 -1.15625q0 -1.15625 0.90625 -1.796875q0.90625 -0.640625 2.5625 -0.640625q1.578125 0 3.0625 0.6875l-0.71875 1.71875q-0.65625 -0.28125 -1.234375 -0.453125q-0.5625 -0.1875 -1.15625 -0.1875q-1.046875 0 -1.046875 0.578125q0 0.3125 0.328125 0.546875q0.34375 0.234375 1.5 0.703125q1.015625 0.40625 1.484375 0.765625q0.484375 0.359375 0.703125 0.828125q0.234375 0.46875 0.234375 1.125zm5.546875 0.84375q0.625 0 1.5 -0.265625l0 1.765625q-0.890625 0.40625 -2.1875 0.40625q-1.4375 0 -2.09375 -0.71875q-0.640625 -0.734375 -0.640625 -2.171875l0 -4.21875l-1.140625 0l0 -1.0l1.3125 -0.796875l0.6875 -1.8437481l1.515625 0l0 1.8593731l2.453125 0l0 1.78125l-2.453125 0l0 4.21875q0 0.5 0.28125 0.75q0.296875 0.234375 0.765625 0.234375zm5.1640625 -2.640625q0 1.296875 0.421875 1.96875q0.421875 0.65625 1.390625 0.65625q0.953125 0 1.359375 -0.65625q0.421875 -0.65625 0.421875 -1.96875q0 -1.296875 -0.421875 -1.9375q-0.421875 -0.65625 -1.375 -0.65625q-0.953125 0 -1.375 0.65625q-0.421875 0.640625 -0.421875 1.9375zm6.03125 0q0 2.140625 -1.125 3.34375q-1.125 1.203125 -3.125 1.203125q-1.265625 0 -2.234375 -0.546875q-0.953125 -0.5625 -1.46875 -1.59375q-0.515625 -1.03125 -0.515625 -2.40625q0 -2.140625 1.109375 -3.328125q1.125 -1.1875 3.15625 -1.1875q1.25 0 2.203125 0.546875q0.96875 0.546875 1.484375 1.578125q0.515625 1.015625 0.515625 2.390625zm6.84375 -4.515625q0.484375 0 0.8125 0.078125l-0.1875 2.234375q-0.28125 -0.078125 -0.703125 -0.078125q-1.140625 0 -1.78125 0.59375q-0.625 0.578125 -0.625 1.625l0 4.453125l-2.390625 0l0 -8.734375l1.8125 0l0.34375 1.46875l0.125 0q0.40625 -0.734375 1.09375 -1.1875q0.6875 -0.453125 1.5 -0.453125zm6.015625 1.703125q-0.765625 0 -1.203125 0.484375q-0.421875 0.46875 -0.484375 1.359375l3.34375 0q-0.015625 -0.890625 -0.46875 -1.359375q-0.4375 -0.484375 -1.1875 -0.484375zm0.328125 7.359375q-2.109375 0 -3.296875 -1.15625q-1.1875 -1.171875 -1.1875 -3.3125q0 -2.1875 1.09375 -3.390625q1.109375 -1.203125 3.046875 -1.203125q1.84375 0 2.875 1.0625q1.03125 1.046875 1.03125 2.90625l0 1.15625l-5.625 0q0.03125 1.015625 0.59375 1.59375q0.5625 0.5625 1.578125 0.5625q0.796875 0 1.5 -0.15625q0.703125 -0.171875 1.46875 -0.53125l0 1.84375q-0.625 0.3125 -1.34375 0.46875q-0.703125 0.15625 -1.734375 0.15625z" fill-rule="nonzero"/></g></svg>